<?xml version="1.0" encoding="utf-8" standalone="no"?>
<!DOCTYPE svg PUBLIC "-//W3C//DTD SVG 1.1//EN"
  "http://www.w3.org/Graphics/SVG/1.1/DTD/svg11.dtd">
<svg xmlns:xlink="http://www.w3.org/1999/xlink" width="432pt" height="288pt" viewBox="0 0 432 288" xmlns="http://www.w3.org/2000/svg" version="1.1">
 <metadata>
  <rdf:RDF xmlns:dc="http://purl.org/dc/elements/1.1/" xmlns:cc="http://creativecommons.org/ns#" xmlns:rdf="http://www.w3.org/1999/02/22-rdf-syntax-ns#">
   <cc:Work>
    <dc:type rdf:resource="http://purl.org/dc/dcmitype/StillImage"/>
    <dc:date>2022-02-22T09:20:27.326171</dc:date>
    <dc:format>image/svg+xml</dc:format>
    <dc:creator>
     <cc:Agent>
      <dc:title>Matplotlib v3.5.0, https://matplotlib.org/</dc:title>
     </cc:Agent>
    </dc:creator>
   </cc:Work>
  </rdf:RDF>
 </metadata>
 <defs>
  <style type="text/css">*{stroke-linejoin: round; stroke-linecap: butt}</style>
 </defs>
 <g id="figure_1">
  <g id="patch_1">
   <path d="M 0 288 
L 432 288 
L 432 0 
L 0 0 
L 0 288 
z
" style="fill: none"/>
  </g>
  <g id="axes_1">
   <g id="patch_2">
    <path d="M 54 252 
L 388.8 252 
L 388.8 34.56 
L 54 34.56 
z
" style="fill: #ffffff"/>
   </g>
   <g id="matplotlib.axis_1">
    <g id="xtick_1">
     <g id="line2d_1">
      <defs>
       <path id="m505cc78960" d="M 0 0 
L 0 3.5 
" style="stroke: #000000; stroke-width: 0.8"/>
      </defs>
      <g>
       <use xlink:href="#m505cc78960" x="68.795455" y="252" style="stroke: #000000; stroke-width: 0.8"/>
      </g>
     </g>
     <g id="text_1">
      <!-- 0 -->
      <g transform="translate(65.614205 266.598437)scale(0.1 -0.1)">
       <defs>
        <path id="DejaVuSans-30" d="M 2034 4250 
Q 1547 4250 1301 3770 
Q 1056 3291 1056 2328 
Q 1056 1369 1301 889 
Q 1547 409 2034 409 
Q 2525 409 2770 889 
Q 3016 1369 3016 2328 
Q 3016 3291 2770 3770 
Q 2525 4250 2034 4250 
z
M 2034 4750 
Q 2819 4750 3233 4129 
Q 3647 3509 3647 2328 
Q 3647 1150 3233 529 
Q 2819 -91 2034 -91 
Q 1250 -91 836 529 
Q 422 1150 422 2328 
Q 422 3509 836 4129 
Q 1250 4750 2034 4750 
z
" transform="scale(0.015625)"/>
       </defs>
       <use xlink:href="#DejaVuSans-30"/>
      </g>
     </g>
    </g>
    <g id="xtick_2">
     <g id="line2d_2">
      <g>
       <use xlink:href="#m505cc78960" x="139.25" y="252" style="stroke: #000000; stroke-width: 0.8"/>
      </g>
     </g>
     <g id="text_2">
      <!-- 1000 -->
      <g transform="translate(126.525 266.598437)scale(0.1 -0.1)">
       <defs>
        <path id="DejaVuSans-31" d="M 794 531 
L 1825 531 
L 1825 4091 
L 703 3866 
L 703 4441 
L 1819 4666 
L 2450 4666 
L 2450 531 
L 3481 531 
L 3481 0 
L 794 0 
L 794 531 
z
" transform="scale(0.015625)"/>
       </defs>
       <use xlink:href="#DejaVuSans-31"/>
       <use xlink:href="#DejaVuSans-30" x="63.623047"/>
       <use xlink:href="#DejaVuSans-30" x="127.246094"/>
       <use xlink:href="#DejaVuSans-30" x="190.869141"/>
      </g>
     </g>
    </g>
    <g id="xtick_3">
     <g id="line2d_3">
      <g>
       <use xlink:href="#m505cc78960" x="209.704545" y="252" style="stroke: #000000; stroke-width: 0.8"/>
      </g>
     </g>
     <g id="text_3">
      <!-- 2000 -->
      <g transform="translate(196.979545 266.598437)scale(0.1 -0.1)">
       <defs>
        <path id="DejaVuSans-32" d="M 1228 531 
L 3431 531 
L 3431 0 
L 469 0 
L 469 531 
Q 828 903 1448 1529 
Q 2069 2156 2228 2338 
Q 2531 2678 2651 2914 
Q 2772 3150 2772 3378 
Q 2772 3750 2511 3984 
Q 2250 4219 1831 4219 
Q 1534 4219 1204 4116 
Q 875 4013 500 3803 
L 500 4441 
Q 881 4594 1212 4672 
Q 1544 4750 1819 4750 
Q 2544 4750 2975 4387 
Q 3406 4025 3406 3419 
Q 3406 3131 3298 2873 
Q 3191 2616 2906 2266 
Q 2828 2175 2409 1742 
Q 1991 1309 1228 531 
z
" transform="scale(0.015625)"/>
       </defs>
       <use xlink:href="#DejaVuSans-32"/>
       <use xlink:href="#DejaVuSans-30" x="63.623047"/>
       <use xlink:href="#DejaVuSans-30" x="127.246094"/>
       <use xlink:href="#DejaVuSans-30" x="190.869141"/>
      </g>
     </g>
    </g>
    <g id="xtick_4">
     <g id="line2d_4">
      <g>
       <use xlink:href="#m505cc78960" x="280.159091" y="252" style="stroke: #000000; stroke-width: 0.8"/>
      </g>
     </g>
     <g id="text_4">
      <!-- 3000 -->
      <g transform="translate(267.434091 266.598437)scale(0.1 -0.1)">
       <defs>
        <path id="DejaVuSans-33" d="M 2597 2516 
Q 3050 2419 3304 2112 
Q 3559 1806 3559 1356 
Q 3559 666 3084 287 
Q 2609 -91 1734 -91 
Q 1441 -91 1130 -33 
Q 819 25 488 141 
L 488 750 
Q 750 597 1062 519 
Q 1375 441 1716 441 
Q 2309 441 2620 675 
Q 2931 909 2931 1356 
Q 2931 1769 2642 2001 
Q 2353 2234 1838 2234 
L 1294 2234 
L 1294 2753 
L 1863 2753 
Q 2328 2753 2575 2939 
Q 2822 3125 2822 3475 
Q 2822 3834 2567 4026 
Q 2313 4219 1838 4219 
Q 1578 4219 1281 4162 
Q 984 4106 628 3988 
L 628 4550 
Q 988 4650 1302 4700 
Q 1616 4750 1894 4750 
Q 2613 4750 3031 4423 
Q 3450 4097 3450 3541 
Q 3450 3153 3228 2886 
Q 3006 2619 2597 2516 
z
" transform="scale(0.015625)"/>
       </defs>
       <use xlink:href="#DejaVuSans-33"/>
       <use xlink:href="#DejaVuSans-30" x="63.623047"/>
       <use xlink:href="#DejaVuSans-30" x="127.246094"/>
       <use xlink:href="#DejaVuSans-30" x="190.869141"/>
      </g>
     </g>
    </g>
    <g id="xtick_5">
     <g id="line2d_5">
      <g>
       <use xlink:href="#m505cc78960" x="350.613636" y="252" style="stroke: #000000; stroke-width: 0.8"/>
      </g>
     </g>
     <g id="text_5">
      <!-- 4000 -->
      <g transform="translate(337.888636 266.598437)scale(0.1 -0.1)">
       <defs>
        <path id="DejaVuSans-34" d="M 2419 4116 
L 825 1625 
L 2419 1625 
L 2419 4116 
z
M 2253 4666 
L 3047 4666 
L 3047 1625 
L 3713 1625 
L 3713 1100 
L 3047 1100 
L 3047 0 
L 2419 0 
L 2419 1100 
L 313 1100 
L 313 1709 
L 2253 4666 
z
" transform="scale(0.015625)"/>
       </defs>
       <use xlink:href="#DejaVuSans-34"/>
       <use xlink:href="#DejaVuSans-30" x="63.623047"/>
       <use xlink:href="#DejaVuSans-30" x="127.246094"/>
       <use xlink:href="#DejaVuSans-30" x="190.869141"/>
      </g>
     </g>
    </g>
   </g>
   <g id="matplotlib.axis_2">
    <g id="ytick_1">
     <g id="line2d_6">
      <defs>
       <path id="m526de651be" d="M 0 0 
L -3.5 0 
" style="stroke: #000000; stroke-width: 0.8"/>
      </defs>
      <g>
       <use xlink:href="#m526de651be" x="54" y="242.775273" style="stroke: #000000; stroke-width: 0.8"/>
      </g>
     </g>
     <g id="text_6">
      <!-- 0 -->
      <g transform="translate(40.6375 246.574491)scale(0.1 -0.1)">
       <use xlink:href="#DejaVuSans-30"/>
      </g>
     </g>
    </g>
    <g id="ytick_2">
     <g id="line2d_7">
      <g>
       <use xlink:href="#m526de651be" x="54" y="209.829818" style="stroke: #000000; stroke-width: 0.8"/>
      </g>
     </g>
     <g id="text_7">
      <!-- 50 -->
      <g transform="translate(34.275 213.629037)scale(0.1 -0.1)">
       <defs>
        <path id="DejaVuSans-35" d="M 691 4666 
L 3169 4666 
L 3169 4134 
L 1269 4134 
L 1269 2991 
Q 1406 3038 1543 3061 
Q 1681 3084 1819 3084 
Q 2600 3084 3056 2656 
Q 3513 2228 3513 1497 
Q 3513 744 3044 326 
Q 2575 -91 1722 -91 
Q 1428 -91 1123 -41 
Q 819 9 494 109 
L 494 744 
Q 775 591 1075 516 
Q 1375 441 1709 441 
Q 2250 441 2565 725 
Q 2881 1009 2881 1497 
Q 2881 1984 2565 2268 
Q 2250 2553 1709 2553 
Q 1456 2553 1204 2497 
Q 953 2441 691 2322 
L 691 4666 
z
" transform="scale(0.015625)"/>
       </defs>
       <use xlink:href="#DejaVuSans-35"/>
       <use xlink:href="#DejaVuSans-30" x="63.623047"/>
      </g>
     </g>
    </g>
    <g id="ytick_3">
     <g id="line2d_8">
      <g>
       <use xlink:href="#m526de651be" x="54" y="176.884364" style="stroke: #000000; stroke-width: 0.8"/>
      </g>
     </g>
     <g id="text_8">
      <!-- 100 -->
      <g transform="translate(27.9125 180.683582)scale(0.1 -0.1)">
       <use xlink:href="#DejaVuSans-31"/>
       <use xlink:href="#DejaVuSans-30" x="63.623047"/>
       <use xlink:href="#DejaVuSans-30" x="127.246094"/>
      </g>
     </g>
    </g>
    <g id="ytick_4">
     <g id="line2d_9">
      <g>
       <use xlink:href="#m526de651be" x="54" y="143.938909" style="stroke: #000000; stroke-width: 0.8"/>
      </g>
     </g>
     <g id="text_9">
      <!-- 150 -->
      <g transform="translate(27.9125 147.738128)scale(0.1 -0.1)">
       <use xlink:href="#DejaVuSans-31"/>
       <use xlink:href="#DejaVuSans-35" x="63.623047"/>
       <use xlink:href="#DejaVuSans-30" x="127.246094"/>
      </g>
     </g>
    </g>
    <g id="ytick_5">
     <g id="line2d_10">
      <g>
       <use xlink:href="#m526de651be" x="54" y="110.993455" style="stroke: #000000; stroke-width: 0.8"/>
      </g>
     </g>
     <g id="text_10">
      <!-- 200 -->
      <g transform="translate(27.9125 114.792673)scale(0.1 -0.1)">
       <use xlink:href="#DejaVuSans-32"/>
       <use xlink:href="#DejaVuSans-30" x="63.623047"/>
       <use xlink:href="#DejaVuSans-30" x="127.246094"/>
      </g>
     </g>
    </g>
    <g id="ytick_6">
     <g id="line2d_11">
      <g>
       <use xlink:href="#m526de651be" x="54" y="78.048" style="stroke: #000000; stroke-width: 0.8"/>
      </g>
     </g>
     <g id="text_11">
      <!-- 250 -->
      <g transform="translate(27.9125 81.847219)scale(0.1 -0.1)">
       <use xlink:href="#DejaVuSans-32"/>
       <use xlink:href="#DejaVuSans-35" x="63.623047"/>
       <use xlink:href="#DejaVuSans-30" x="127.246094"/>
      </g>
     </g>
    </g>
    <g id="ytick_7">
     <g id="line2d_12">
      <g>
       <use xlink:href="#m526de651be" x="54" y="45.102545" style="stroke: #000000; stroke-width: 0.8"/>
      </g>
     </g>
     <g id="text_12">
      <!-- 300 -->
      <g transform="translate(27.9125 48.901764)scale(0.1 -0.1)">
       <use xlink:href="#DejaVuSans-33"/>
       <use xlink:href="#DejaVuSans-30" x="63.623047"/>
       <use xlink:href="#DejaVuSans-30" x="127.246094"/>
      </g>
     </g>
    </g>
   </g>
   <g id="line2d_13">
    <path d="M 69.218182 209.829818 
L 70.204545 110.334545 
L 75.206818 110.334545 
L 76.475 149.869091 
L 79.222727 176.225455 
L 79.715909 242.116364 
L 80.138636 235.527273 
L 80.561364 242.116364 
L 81.195455 189.403636 
L 82.745455 182.814545 
L 84.225 182.814545 
L 85.140909 116.923636 
L 85.493182 176.225455 
L 86.056818 182.814545 
L 86.690909 130.101818 
L 87.395455 123.512727 
L 88.875 189.403636 
L 90.636364 228.938182 
L 92.256818 169.636364 
L 93.384091 116.923636 
L 94.511364 70.8 
L 96.202273 70.8 
L 100.359091 156.458182 
L 102.543182 169.636364 
L 104.797727 156.458182 
L 107.052273 169.636364 
L 109.306818 163.047273 
L 111.561364 163.047273 
L 113.463636 202.581818 
L 115.295455 209.170909 
L 116.704545 215.76 
L 117.620455 143.28 
L 118.465909 149.869091 
L 119.593182 182.814545 
L 121.354545 182.814545 
L 123.609091 242.116364 
L 125.229545 242.116364 
L 126.075 189.403636 
L 126.709091 169.636364 
L 127.272727 143.28 
L 127.836364 130.101818 
L 128.4 130.101818 
L 128.963636 176.225455 
L 129.527273 143.28 
L 129.879545 143.28 
L 130.443182 189.403636 
L 131.781818 169.636364 
L 133.402273 235.527273 
L 134.881818 110.334545 
L 136.009091 57.621818 
L 136.502273 90.567273 
L 136.643182 136.690909 
L 137.418182 176.225455 
L 137.911364 189.403636 
L 138.545455 136.690909 
L 138.897727 169.636364 
L 139.25 182.814545 
L 139.602273 176.225455 
L 140.306818 176.225455 
L 140.659091 169.636364 
L 141.293182 228.938182 
L 141.856818 202.581818 
L 142.279545 130.101818 
L 142.702273 103.745455 
L 143.618182 169.636364 
L 144.886364 149.869091 
L 146.506818 215.76 
L 148.338636 156.458182 
L 149.888636 222.349091 
L 150.522727 123.512727 
L 151.086364 57.621818 
L 152.213636 202.581818 
L 153.552273 182.814545 
L 154.75 189.403636 
L 155.525 242.116364 
L 155.947727 116.923636 
L 156.440909 57.621818 
L 156.934091 143.28 
L 157.427273 176.225455 
L 157.920455 242.116364 
L 158.765909 242.116364 
L 159.4 116.923636 
L 160.597727 51.032727 
L 163.768182 149.869091 
L 165.952273 163.047273 
L 168.206818 163.047273 
L 170.461364 169.636364 
L 172.081818 163.047273 
L 173.138636 163.047273 
L 174.477273 169.636364 
L 176.027273 163.047273 
L 177.225 169.636364 
L 178.493182 163.047273 
L 179.972727 163.047273 
L 181.311364 169.636364 
L 182.509091 163.047273 
L 183.284091 176.225455 
L 183.988636 195.992727 
L 185.045455 143.28 
L 186.031818 149.869091 
L 186.947727 163.047273 
L 187.793182 163.047273 
L 188.920455 202.581818 
L 190.470455 209.170909 
L 192.161364 242.116364 
L 193.640909 242.116364 
L 195.331818 169.636364 
L 197.234091 123.512727 
L 198.854545 97.156364 
L 200.263636 130.101818 
L 201.531818 176.225455 
L 202.940909 242.116364 
L 204.209091 116.923636 
L 205.265909 83.978182 
L 206.815909 130.101818 
L 208.577273 156.458182 
L 210.409091 163.047273 
L 212.029545 169.636364 
L 213.438636 163.047273 
L 215.411364 189.403636 
L 217.031818 202.581818 
L 218.088636 242.116364 
L 219.356818 143.28 
L 221.047727 176.225455 
L 222.668182 110.334545 
L 224.429545 143.28 
L 226.120455 149.869091 
L 227.529545 163.047273 
L 229.290909 143.28 
L 231.193182 163.047273 
L 232.884091 163.047273 
L 234.715909 169.636364 
L 236.618182 163.047273 
L 239.718182 163.047273 
L 241.056818 169.636364 
L 242.254545 163.047273 
L 243.522727 228.938182 
L 245.213636 116.923636 
L 247.256818 156.458182 
L 249.159091 163.047273 
L 252.540909 163.047273 
L 254.302273 169.636364 
L 255.5 163.047273 
L 256.275 169.636364 
L 257.120455 169.636364 
L 258.318182 163.047273 
L 259.586364 209.170909 
L 260.854545 149.869091 
L 261.981818 182.814545 
L 262.968182 182.814545 
L 264.588636 215.76 
L 265.997727 215.76 
L 267.265909 110.334545 
L 268.815909 123.512727 
L 270.154545 116.923636 
L 271.704545 149.869091 
L 273.043182 215.76 
L 274.240909 123.512727 
L 275.65 156.458182 
L 277.270455 163.047273 
L 278.961364 163.047273 
L 280.3 169.636364 
L 281.145455 163.047273 
L 281.920455 169.636364 
L 283.259091 163.047273 
L 285.020455 163.047273 
L 286.640909 169.636364 
L 287.486364 163.047273 
L 288.190909 169.636364 
L 289.459091 163.047273 
L 290.868182 163.047273 
L 292.418182 169.636364 
L 293.897727 163.047273 
L 295.377273 169.636364 
L 297.420455 163.047273 
L 299.675 169.636364 
L 307.565909 169.636364 
L 309.256818 228.938182 
L 310.736364 156.458182 
L 312.075 182.814545 
L 313.343182 116.923636 
L 314.893182 182.814545 
L 316.936364 242.116364 
L 318.556818 209.170909 
L 319.331818 136.690909 
L 320.177273 123.512727 
L 321.727273 189.403636 
L 323.770455 242.116364 
L 325.743182 149.869091 
L 327.081818 195.992727 
L 327.856818 176.225455 
L 328.490909 130.101818 
L 329.125 103.745455 
L 329.688636 103.745455 
L 330.534091 136.690909 
L 332.013636 202.581818 
L 334.056818 222.349091 
L 335.959091 116.923636 
L 337.65 97.156364 
L 339.129545 149.869091 
L 340.538636 163.047273 
L 342.018182 163.047273 
L 343.568182 169.636364 
L 345.329545 163.047273 
L 347.584091 163.047273 
L 349.486364 169.636364 
L 351.529545 176.225455 
L 353.572727 169.636364 
L 355.052273 228.938182 
L 356.390909 228.938182 
L 358.293182 242.116364 
L 360.547727 242.116364 
L 362.520455 156.458182 
L 364.211364 163.047273 
L 365.761364 136.690909 
L 367.170455 70.8 
L 368.086364 44.443636 
L 368.65 136.690909 
L 369.213636 156.458182 
L 369.706818 189.403636 
L 370.2 143.28 
L 370.693182 195.992727 
L 371.186364 209.170909 
L 371.961364 209.170909 
L 372.665909 163.047273 
L 372.877273 202.581818 
L 373.581818 195.992727 
L 373.581818 195.992727 
" clip-path="url(#p9e7951688b)" style="fill: none; stroke: #1f77b4; stroke-width: 1.5; stroke-linecap: square"/>
   </g>
   <g id="patch_3">
    <path d="M 54 252 
L 54 34.56 
" style="fill: none; stroke: #000000; stroke-width: 0.8; stroke-linejoin: miter; stroke-linecap: square"/>
   </g>
   <g id="patch_4">
    <path d="M 388.8 252 
L 388.8 34.56 
" style="fill: none; stroke: #000000; stroke-width: 0.8; stroke-linejoin: miter; stroke-linecap: square"/>
   </g>
   <g id="patch_5">
    <path d="M 54 252 
L 388.8 252 
" style="fill: none; stroke: #000000; stroke-width: 0.8; stroke-linejoin: miter; stroke-linecap: square"/>
   </g>
   <g id="patch_6">
    <path d="M 54 34.56 
L 388.8 34.56 
" style="fill: none; stroke: #000000; stroke-width: 0.8; stroke-linejoin: miter; stroke-linecap: square"/>
   </g>
  </g>
 </g>
 <defs>
  <clipPath id="p9e7951688b">
   <rect x="54" y="34.56" width="334.8" height="217.44"/>
  </clipPath>
 </defs>
</svg>
