<?xml version="1.0" encoding="utf-8" standalone="no"?>
<!DOCTYPE svg PUBLIC "-//W3C//DTD SVG 1.1//EN"
  "http://www.w3.org/Graphics/SVG/1.1/DTD/svg11.dtd">
<svg xmlns:xlink="http://www.w3.org/1999/xlink" width="432pt" height="288pt" viewBox="0 0 432 288" xmlns="http://www.w3.org/2000/svg" version="1.1">
 <metadata>
  <rdf:RDF xmlns:dc="http://purl.org/dc/elements/1.1/" xmlns:cc="http://creativecommons.org/ns#" xmlns:rdf="http://www.w3.org/1999/02/22-rdf-syntax-ns#">
   <cc:Work>
    <dc:type rdf:resource="http://purl.org/dc/dcmitype/StillImage"/>
    <dc:date>2022-02-22T09:22:20.638630</dc:date>
    <dc:format>image/svg+xml</dc:format>
    <dc:creator>
     <cc:Agent>
      <dc:title>Matplotlib v3.5.0, https://matplotlib.org/</dc:title>
     </cc:Agent>
    </dc:creator>
   </cc:Work>
  </rdf:RDF>
 </metadata>
 <defs>
  <style type="text/css">*{stroke-linejoin: round; stroke-linecap: butt}</style>
 </defs>
 <g id="figure_1">
  <g id="patch_1">
   <path d="M 0 288 
L 432 288 
L 432 0 
L 0 0 
L 0 288 
z
" style="fill: none"/>
  </g>
  <g id="axes_1">
   <g id="patch_2">
    <path d="M 54 252 
L 388.8 252 
L 388.8 34.56 
L 54 34.56 
z
" style="fill: #ffffff"/>
   </g>
   <g id="matplotlib.axis_1">
    <g id="xtick_1">
     <g id="line2d_1">
      <defs>
       <path id="m0a6cbec680" d="M 0 0 
L 0 3.5 
" style="stroke: #000000; stroke-width: 0.8"/>
      </defs>
      <g>
       <use xlink:href="#m0a6cbec680" x="69.218182" y="252" style="stroke: #000000; stroke-width: 0.8"/>
      </g>
     </g>
     <g id="text_1">
      <!-- 0 -->
      <g transform="translate(66.036932 266.598437)scale(0.1 -0.1)">
       <defs>
        <path id="DejaVuSans-30" d="M 2034 4250 
Q 1547 4250 1301 3770 
Q 1056 3291 1056 2328 
Q 1056 1369 1301 889 
Q 1547 409 2034 409 
Q 2525 409 2770 889 
Q 3016 1369 3016 2328 
Q 3016 3291 2770 3770 
Q 2525 4250 2034 4250 
z
M 2034 4750 
Q 2819 4750 3233 4129 
Q 3647 3509 3647 2328 
Q 3647 1150 3233 529 
Q 2819 -91 2034 -91 
Q 1250 -91 836 529 
Q 422 1150 422 2328 
Q 422 3509 836 4129 
Q 1250 4750 2034 4750 
z
" transform="scale(0.015625)"/>
       </defs>
       <use xlink:href="#DejaVuSans-30"/>
      </g>
     </g>
    </g>
    <g id="xtick_2">
     <g id="line2d_2">
      <g>
       <use xlink:href="#m0a6cbec680" x="139.803441" y="252" style="stroke: #000000; stroke-width: 0.8"/>
      </g>
     </g>
     <g id="text_2">
      <!-- 1000 -->
      <g transform="translate(127.078441 266.598437)scale(0.1 -0.1)">
       <defs>
        <path id="DejaVuSans-31" d="M 794 531 
L 1825 531 
L 1825 4091 
L 703 3866 
L 703 4441 
L 1819 4666 
L 2450 4666 
L 2450 531 
L 3481 531 
L 3481 0 
L 794 0 
L 794 531 
z
" transform="scale(0.015625)"/>
       </defs>
       <use xlink:href="#DejaVuSans-31"/>
       <use xlink:href="#DejaVuSans-30" x="63.623047"/>
       <use xlink:href="#DejaVuSans-30" x="127.246094"/>
       <use xlink:href="#DejaVuSans-30" x="190.869141"/>
      </g>
     </g>
    </g>
    <g id="xtick_3">
     <g id="line2d_3">
      <g>
       <use xlink:href="#m0a6cbec680" x="210.3887" y="252" style="stroke: #000000; stroke-width: 0.8"/>
      </g>
     </g>
     <g id="text_3">
      <!-- 2000 -->
      <g transform="translate(197.6637 266.598437)scale(0.1 -0.1)">
       <defs>
        <path id="DejaVuSans-32" d="M 1228 531 
L 3431 531 
L 3431 0 
L 469 0 
L 469 531 
Q 828 903 1448 1529 
Q 2069 2156 2228 2338 
Q 2531 2678 2651 2914 
Q 2772 3150 2772 3378 
Q 2772 3750 2511 3984 
Q 2250 4219 1831 4219 
Q 1534 4219 1204 4116 
Q 875 4013 500 3803 
L 500 4441 
Q 881 4594 1212 4672 
Q 1544 4750 1819 4750 
Q 2544 4750 2975 4387 
Q 3406 4025 3406 3419 
Q 3406 3131 3298 2873 
Q 3191 2616 2906 2266 
Q 2828 2175 2409 1742 
Q 1991 1309 1228 531 
z
" transform="scale(0.015625)"/>
       </defs>
       <use xlink:href="#DejaVuSans-32"/>
       <use xlink:href="#DejaVuSans-30" x="63.623047"/>
       <use xlink:href="#DejaVuSans-30" x="127.246094"/>
       <use xlink:href="#DejaVuSans-30" x="190.869141"/>
      </g>
     </g>
    </g>
    <g id="xtick_4">
     <g id="line2d_4">
      <g>
       <use xlink:href="#m0a6cbec680" x="280.973959" y="252" style="stroke: #000000; stroke-width: 0.8"/>
      </g>
     </g>
     <g id="text_4">
      <!-- 3000 -->
      <g transform="translate(268.248959 266.598437)scale(0.1 -0.1)">
       <defs>
        <path id="DejaVuSans-33" d="M 2597 2516 
Q 3050 2419 3304 2112 
Q 3559 1806 3559 1356 
Q 3559 666 3084 287 
Q 2609 -91 1734 -91 
Q 1441 -91 1130 -33 
Q 819 25 488 141 
L 488 750 
Q 750 597 1062 519 
Q 1375 441 1716 441 
Q 2309 441 2620 675 
Q 2931 909 2931 1356 
Q 2931 1769 2642 2001 
Q 2353 2234 1838 2234 
L 1294 2234 
L 1294 2753 
L 1863 2753 
Q 2328 2753 2575 2939 
Q 2822 3125 2822 3475 
Q 2822 3834 2567 4026 
Q 2313 4219 1838 4219 
Q 1578 4219 1281 4162 
Q 984 4106 628 3988 
L 628 4550 
Q 988 4650 1302 4700 
Q 1616 4750 1894 4750 
Q 2613 4750 3031 4423 
Q 3450 4097 3450 3541 
Q 3450 3153 3228 2886 
Q 3006 2619 2597 2516 
z
" transform="scale(0.015625)"/>
       </defs>
       <use xlink:href="#DejaVuSans-33"/>
       <use xlink:href="#DejaVuSans-30" x="63.623047"/>
       <use xlink:href="#DejaVuSans-30" x="127.246094"/>
       <use xlink:href="#DejaVuSans-30" x="190.869141"/>
      </g>
     </g>
    </g>
    <g id="xtick_5">
     <g id="line2d_5">
      <g>
       <use xlink:href="#m0a6cbec680" x="351.559217" y="252" style="stroke: #000000; stroke-width: 0.8"/>
      </g>
     </g>
     <g id="text_5">
      <!-- 4000 -->
      <g transform="translate(338.834217 266.598437)scale(0.1 -0.1)">
       <defs>
        <path id="DejaVuSans-34" d="M 2419 4116 
L 825 1625 
L 2419 1625 
L 2419 4116 
z
M 2253 4666 
L 3047 4666 
L 3047 1625 
L 3713 1625 
L 3713 1100 
L 3047 1100 
L 3047 0 
L 2419 0 
L 2419 1100 
L 313 1100 
L 313 1709 
L 2253 4666 
z
" transform="scale(0.015625)"/>
       </defs>
       <use xlink:href="#DejaVuSans-34"/>
       <use xlink:href="#DejaVuSans-30" x="63.623047"/>
       <use xlink:href="#DejaVuSans-30" x="127.246094"/>
       <use xlink:href="#DejaVuSans-30" x="190.869141"/>
      </g>
     </g>
    </g>
   </g>
   <g id="matplotlib.axis_2">
    <g id="ytick_1">
     <g id="line2d_6">
      <defs>
       <path id="m6de744320d" d="M 0 0 
L -3.5 0 
" style="stroke: #000000; stroke-width: 0.8"/>
      </defs>
      <g>
       <use xlink:href="#m6de744320d" x="54" y="242.519777" style="stroke: #000000; stroke-width: 0.8"/>
      </g>
     </g>
     <g id="text_6">
      <!-- 0 -->
      <g transform="translate(40.6375 246.318996)scale(0.1 -0.1)">
       <use xlink:href="#DejaVuSans-30"/>
      </g>
     </g>
    </g>
    <g id="ytick_2">
     <g id="line2d_7">
      <g>
       <use xlink:href="#m6de744320d" x="54" y="202.178404" style="stroke: #000000; stroke-width: 0.8"/>
      </g>
     </g>
     <g id="text_7">
      <!-- 100 -->
      <g transform="translate(27.9125 205.977623)scale(0.1 -0.1)">
       <use xlink:href="#DejaVuSans-31"/>
       <use xlink:href="#DejaVuSans-30" x="63.623047"/>
       <use xlink:href="#DejaVuSans-30" x="127.246094"/>
      </g>
     </g>
    </g>
    <g id="ytick_3">
     <g id="line2d_8">
      <g>
       <use xlink:href="#m6de744320d" x="54" y="161.837032" style="stroke: #000000; stroke-width: 0.8"/>
      </g>
     </g>
     <g id="text_8">
      <!-- 200 -->
      <g transform="translate(27.9125 165.63625)scale(0.1 -0.1)">
       <use xlink:href="#DejaVuSans-32"/>
       <use xlink:href="#DejaVuSans-30" x="63.623047"/>
       <use xlink:href="#DejaVuSans-30" x="127.246094"/>
      </g>
     </g>
    </g>
    <g id="ytick_4">
     <g id="line2d_9">
      <g>
       <use xlink:href="#m6de744320d" x="54" y="121.495659" style="stroke: #000000; stroke-width: 0.8"/>
      </g>
     </g>
     <g id="text_9">
      <!-- 300 -->
      <g transform="translate(27.9125 125.294877)scale(0.1 -0.1)">
       <use xlink:href="#DejaVuSans-33"/>
       <use xlink:href="#DejaVuSans-30" x="63.623047"/>
       <use xlink:href="#DejaVuSans-30" x="127.246094"/>
      </g>
     </g>
    </g>
    <g id="ytick_5">
     <g id="line2d_10">
      <g>
       <use xlink:href="#m6de744320d" x="54" y="81.154286" style="stroke: #000000; stroke-width: 0.8"/>
      </g>
     </g>
     <g id="text_10">
      <!-- 400 -->
      <g transform="translate(27.9125 84.953504)scale(0.1 -0.1)">
       <use xlink:href="#DejaVuSans-34"/>
       <use xlink:href="#DejaVuSans-30" x="63.623047"/>
       <use xlink:href="#DejaVuSans-30" x="127.246094"/>
      </g>
     </g>
    </g>
    <g id="ytick_6">
     <g id="line2d_11">
      <g>
       <use xlink:href="#m6de744320d" x="54" y="40.812913" style="stroke: #000000; stroke-width: 0.8"/>
      </g>
     </g>
     <g id="text_11">
      <!-- 500 -->
      <g transform="translate(27.9125 44.612132)scale(0.1 -0.1)">
       <defs>
        <path id="DejaVuSans-35" d="M 691 4666 
L 3169 4666 
L 3169 4134 
L 1269 4134 
L 1269 2991 
Q 1406 3038 1543 3061 
Q 1681 3084 1819 3084 
Q 2600 3084 3056 2656 
Q 3513 2228 3513 1497 
Q 3513 744 3044 326 
Q 2575 -91 1722 -91 
Q 1428 -91 1123 -41 
Q 819 9 494 109 
L 494 744 
Q 775 591 1075 516 
Q 1375 441 1709 441 
Q 2250 441 2565 725 
Q 2881 1009 2881 1497 
Q 2881 1984 2565 2268 
Q 2250 2553 1709 2553 
Q 1456 2553 1204 2497 
Q 953 2441 691 2322 
L 691 4666 
z
" transform="scale(0.015625)"/>
       </defs>
       <use xlink:href="#DejaVuSans-35"/>
       <use xlink:href="#DejaVuSans-30" x="63.623047"/>
       <use xlink:href="#DejaVuSans-30" x="127.246094"/>
      </g>
     </g>
    </g>
   </g>
   <g id="line2d_12">
    <path d="M 69.218182 89.22256 
L 69.782864 129.563933 
L 71.123984 165.871169 
L 72.959201 137.632208 
L 74.582661 105.359109 
L 75.359099 77.120148 
L 75.994367 113.427384 
L 76.84139 153.768757 
L 78.041339 153.768757 
L 79.735385 194.11013 
L 81.147091 234.451503 
L 82.417625 242.116364 
L 84.252842 217.91154 
L 86.51157 161.433618 
L 88.135031 161.433618 
L 89.617322 133.194657 
L 92.652488 60.580186 
L 93.570096 80.750872 
L 96.605262 121.092245 
L 98.863991 161.433618 
L 100.840378 201.774991 
L 103.028521 242.116364 
L 109.804706 242.116364 
L 112.063434 225.979814 
L 113.969236 242.116364 
L 115.804453 242.116364 
L 117.992596 221.945677 
L 118.769034 242.116364 
L 121.521859 242.116364 
L 123.710002 189.672579 
L 125.333463 193.706716 
L 126.745168 181.604304 
L 128.368629 149.331206 
L 129.780334 125.126382 
L 131.121454 161.433618 
L 132.744915 185.638442 
L 134.509546 173.53603 
L 135.709496 197.740853 
L 136.627104 165.467755 
L 137.191786 157.399481 
L 137.685883 121.092245 
L 138.109395 121.092245 
L 139.027003 161.433618 
L 140.650464 193.706716 
L 142.062169 234.048089 
L 143.050363 242.116364 
L 143.403289 238.082226 
L 143.615045 169.501892 
L 143.756215 129.160519 
L 144.250312 104.955696 
L 145.450261 64.614323 
L 147.003137 104.955696 
L 148.838354 92.853284 
L 150.39123 68.64846 
L 151.097082 72.682597 
L 155.614539 201.774991 
L 156.955659 234.048089 
L 158.296779 234.048089 
L 159.496728 242.116364 
L 160.343751 242.116364 
L 161.120189 201.774991 
L 162.249553 242.116364 
L 167.331692 242.116364 
L 169.59042 165.467755 
L 171.566807 125.126382 
L 173.402024 149.331206 
L 174.813729 125.126382 
L 175.731337 149.331206 
L 176.507775 117.058108 
L 177.284213 133.194657 
L 178.342992 169.501892 
L 179.613527 169.501892 
L 180.813476 209.843265 
L 181.872255 230.013952 
L 182.860449 242.116364 
L 183.919228 225.979814 
L 185.330933 242.116364 
L 186.954394 242.116364 
L 188.436684 161.433618 
L 189.98956 121.092245 
L 193.307067 44.443636 
L 194.718772 56.546048 
L 196.412818 76.716735 
L 198.600961 92.853284 
L 200.577349 108.989833 
L 202.271395 121.092245 
L 206.082999 189.672579 
L 208.200557 201.774991 
L 210.106359 242.116364 
L 211.447478 242.116364 
L 211.941575 197.740853 
L 212.365087 238.082226 
L 213.423866 242.116364 
L 215.047327 209.843265 
L 216.811958 213.877403 
L 218.364834 161.433618 
L 220.129465 145.297069 
L 222.317608 104.955696 
L 224.293996 84.785009 
L 225.705701 125.126382 
L 226.623309 165.467755 
L 227.399747 205.809128 
L 228.458526 197.740853 
L 230.152572 238.082226 
L 231.987789 242.116364 
L 241.79914 242.116364 
L 242.999089 197.740853 
L 244.269624 157.399481 
L 245.96367 173.53603 
L 247.940057 205.809128 
L 249.845859 201.774991 
L 251.46932 217.91154 
L 253.233952 161.433618 
L 254.998583 181.604304 
L 256.127947 141.262931 
L 256.8338 129.160519 
L 258.598431 60.580186 
L 260.292478 76.716735 
L 261.986524 52.511911 
L 263.68057 76.716735 
L 265.798128 92.853284 
L 267.774515 108.989833 
L 269.539147 149.331206 
L 271.092022 141.262931 
L 272.786068 181.604304 
L 274.69187 197.740853 
L 276.597672 238.082226 
L 278.644645 242.116364 
L 280.268106 213.877403 
L 281.2563 161.433618 
L 281.679811 121.092245 
L 283.373857 173.53603 
L 284.573807 137.228794 
L 285.773756 177.570167 
L 287.538388 217.91154 
L 289.091263 242.116364 
L 290.502968 242.116364 
L 292.479356 169.501892 
L 294.102817 209.843265 
L 295.232181 225.979814 
L 296.643886 238.082226 
L 298.408517 242.116364 
L 300.384905 161.433618 
L 302.431877 121.092245 
L 304.337679 125.126382 
L 306.384652 161.433618 
L 309.9845 92.853284 
L 311.537376 129.160519 
L 312.949081 108.989833 
L 314.219615 117.058108 
L 315.772491 129.160519 
L 317.819464 137.228794 
L 319.442925 145.297069 
L 320.219362 153.365343 
L 321.066386 153.365343 
L 322.619261 169.501892 
L 324.666234 185.638442 
L 326.642621 213.877403 
L 327.983741 201.774991 
L 328.760179 173.53603 
L 329.395446 157.399481 
L 330.030713 185.638442 
L 330.595396 169.501892 
L 331.442419 209.843265 
L 332.924709 242.116364 
L 334.901096 242.116364 
L 336.877484 238.082226 
L 338.57153 242.116364 
L 341.465525 242.116364 
L 342.947816 205.809128 
L 344.500692 230.013952 
L 346.194738 173.53603 
L 348.453466 213.877403 
L 350.359268 201.774991 
L 352.194485 242.116364 
L 354.029701 181.604304 
L 355.300236 221.945677 
L 355.794333 185.638442 
L 356.570771 145.297069 
L 357.700135 117.058108 
L 358.264817 157.399481 
L 358.476573 121.092245 
L 359.253011 92.853284 
L 361.017642 133.194657 
L 363.064615 169.501892 
L 365.252758 129.160519 
L 367.229145 165.467755 
L 368.993776 153.365343 
L 370.617237 113.02397 
L 373.581818 193.706716 
L 373.581818 193.706716 
" clip-path="url(#p4ab7800e43)" style="fill: none; stroke: #1f77b4; stroke-width: 1.5; stroke-linecap: square"/>
   </g>
   <g id="patch_3">
    <path d="M 54 252 
L 54 34.56 
" style="fill: none; stroke: #000000; stroke-width: 0.8; stroke-linejoin: miter; stroke-linecap: square"/>
   </g>
   <g id="patch_4">
    <path d="M 388.8 252 
L 388.8 34.56 
" style="fill: none; stroke: #000000; stroke-width: 0.8; stroke-linejoin: miter; stroke-linecap: square"/>
   </g>
   <g id="patch_5">
    <path d="M 54 252 
L 388.8 252 
" style="fill: none; stroke: #000000; stroke-width: 0.8; stroke-linejoin: miter; stroke-linecap: square"/>
   </g>
   <g id="patch_6">
    <path d="M 54 34.56 
L 388.8 34.56 
" style="fill: none; stroke: #000000; stroke-width: 0.8; stroke-linejoin: miter; stroke-linecap: square"/>
   </g>
  </g>
 </g>
 <defs>
  <clipPath id="p4ab7800e43">
   <rect x="54" y="34.56" width="334.8" height="217.44"/>
  </clipPath>
 </defs>
</svg>
