<?xml version="1.0" encoding="utf-8" standalone="no"?>
<!DOCTYPE svg PUBLIC "-//W3C//DTD SVG 1.1//EN"
  "http://www.w3.org/Graphics/SVG/1.1/DTD/svg11.dtd">
<svg xmlns:xlink="http://www.w3.org/1999/xlink" width="432pt" height="288pt" viewBox="0 0 432 288" xmlns="http://www.w3.org/2000/svg" version="1.1">
 <metadata>
  <rdf:RDF xmlns:dc="http://purl.org/dc/elements/1.1/" xmlns:cc="http://creativecommons.org/ns#" xmlns:rdf="http://www.w3.org/1999/02/22-rdf-syntax-ns#">
   <cc:Work>
    <dc:type rdf:resource="http://purl.org/dc/dcmitype/StillImage"/>
    <dc:date>2022-02-22T09:22:58.171340</dc:date>
    <dc:format>image/svg+xml</dc:format>
    <dc:creator>
     <cc:Agent>
      <dc:title>Matplotlib v3.5.0, https://matplotlib.org/</dc:title>
     </cc:Agent>
    </dc:creator>
   </cc:Work>
  </rdf:RDF>
 </metadata>
 <defs>
  <style type="text/css">*{stroke-linejoin: round; stroke-linecap: butt}</style>
 </defs>
 <g id="figure_1">
  <g id="patch_1">
   <path d="M 0 288 
L 432 288 
L 432 0 
L 0 0 
L 0 288 
z
" style="fill: none"/>
  </g>
  <g id="axes_1">
   <g id="patch_2">
    <path d="M 54 252 
L 388.8 252 
L 388.8 34.56 
L 54 34.56 
z
" style="fill: #ffffff"/>
   </g>
   <g id="matplotlib.axis_1">
    <g id="xtick_1">
     <g id="line2d_1">
      <defs>
       <path id="m788bf9d09e" d="M 0 0 
L 0 3.5 
" style="stroke: #000000; stroke-width: 0.8"/>
      </defs>
      <g>
       <use xlink:href="#m788bf9d09e" x="69.218182" y="252" style="stroke: #000000; stroke-width: 0.8"/>
      </g>
     </g>
     <g id="text_1">
      <!-- 0 -->
      <g transform="translate(66.036932 266.598437)scale(0.1 -0.1)">
       <defs>
        <path id="DejaVuSans-30" d="M 2034 4250 
Q 1547 4250 1301 3770 
Q 1056 3291 1056 2328 
Q 1056 1369 1301 889 
Q 1547 409 2034 409 
Q 2525 409 2770 889 
Q 3016 1369 3016 2328 
Q 3016 3291 2770 3770 
Q 2525 4250 2034 4250 
z
M 2034 4750 
Q 2819 4750 3233 4129 
Q 3647 3509 3647 2328 
Q 3647 1150 3233 529 
Q 2819 -91 2034 -91 
Q 1250 -91 836 529 
Q 422 1150 422 2328 
Q 422 3509 836 4129 
Q 1250 4750 2034 4750 
z
" transform="scale(0.015625)"/>
       </defs>
       <use xlink:href="#DejaVuSans-30"/>
      </g>
     </g>
    </g>
    <g id="xtick_2">
     <g id="line2d_2">
      <g>
       <use xlink:href="#m788bf9d09e" x="139.510015" y="252" style="stroke: #000000; stroke-width: 0.8"/>
      </g>
     </g>
     <g id="text_2">
      <!-- 1000 -->
      <g transform="translate(126.785015 266.598437)scale(0.1 -0.1)">
       <defs>
        <path id="DejaVuSans-31" d="M 794 531 
L 1825 531 
L 1825 4091 
L 703 3866 
L 703 4441 
L 1819 4666 
L 2450 4666 
L 2450 531 
L 3481 531 
L 3481 0 
L 794 0 
L 794 531 
z
" transform="scale(0.015625)"/>
       </defs>
       <use xlink:href="#DejaVuSans-31"/>
       <use xlink:href="#DejaVuSans-30" x="63.623047"/>
       <use xlink:href="#DejaVuSans-30" x="127.246094"/>
       <use xlink:href="#DejaVuSans-30" x="190.869141"/>
      </g>
     </g>
    </g>
    <g id="xtick_3">
     <g id="line2d_3">
      <g>
       <use xlink:href="#m788bf9d09e" x="209.801848" y="252" style="stroke: #000000; stroke-width: 0.8"/>
      </g>
     </g>
     <g id="text_3">
      <!-- 2000 -->
      <g transform="translate(197.076848 266.598437)scale(0.1 -0.1)">
       <defs>
        <path id="DejaVuSans-32" d="M 1228 531 
L 3431 531 
L 3431 0 
L 469 0 
L 469 531 
Q 828 903 1448 1529 
Q 2069 2156 2228 2338 
Q 2531 2678 2651 2914 
Q 2772 3150 2772 3378 
Q 2772 3750 2511 3984 
Q 2250 4219 1831 4219 
Q 1534 4219 1204 4116 
Q 875 4013 500 3803 
L 500 4441 
Q 881 4594 1212 4672 
Q 1544 4750 1819 4750 
Q 2544 4750 2975 4387 
Q 3406 4025 3406 3419 
Q 3406 3131 3298 2873 
Q 3191 2616 2906 2266 
Q 2828 2175 2409 1742 
Q 1991 1309 1228 531 
z
" transform="scale(0.015625)"/>
       </defs>
       <use xlink:href="#DejaVuSans-32"/>
       <use xlink:href="#DejaVuSans-30" x="63.623047"/>
       <use xlink:href="#DejaVuSans-30" x="127.246094"/>
       <use xlink:href="#DejaVuSans-30" x="190.869141"/>
      </g>
     </g>
    </g>
    <g id="xtick_4">
     <g id="line2d_4">
      <g>
       <use xlink:href="#m788bf9d09e" x="280.09368" y="252" style="stroke: #000000; stroke-width: 0.8"/>
      </g>
     </g>
     <g id="text_4">
      <!-- 3000 -->
      <g transform="translate(267.36868 266.598437)scale(0.1 -0.1)">
       <defs>
        <path id="DejaVuSans-33" d="M 2597 2516 
Q 3050 2419 3304 2112 
Q 3559 1806 3559 1356 
Q 3559 666 3084 287 
Q 2609 -91 1734 -91 
Q 1441 -91 1130 -33 
Q 819 25 488 141 
L 488 750 
Q 750 597 1062 519 
Q 1375 441 1716 441 
Q 2309 441 2620 675 
Q 2931 909 2931 1356 
Q 2931 1769 2642 2001 
Q 2353 2234 1838 2234 
L 1294 2234 
L 1294 2753 
L 1863 2753 
Q 2328 2753 2575 2939 
Q 2822 3125 2822 3475 
Q 2822 3834 2567 4026 
Q 2313 4219 1838 4219 
Q 1578 4219 1281 4162 
Q 984 4106 628 3988 
L 628 4550 
Q 988 4650 1302 4700 
Q 1616 4750 1894 4750 
Q 2613 4750 3031 4423 
Q 3450 4097 3450 3541 
Q 3450 3153 3228 2886 
Q 3006 2619 2597 2516 
z
" transform="scale(0.015625)"/>
       </defs>
       <use xlink:href="#DejaVuSans-33"/>
       <use xlink:href="#DejaVuSans-30" x="63.623047"/>
       <use xlink:href="#DejaVuSans-30" x="127.246094"/>
       <use xlink:href="#DejaVuSans-30" x="190.869141"/>
      </g>
     </g>
    </g>
    <g id="xtick_5">
     <g id="line2d_5">
      <g>
       <use xlink:href="#m788bf9d09e" x="350.385513" y="252" style="stroke: #000000; stroke-width: 0.8"/>
      </g>
     </g>
     <g id="text_5">
      <!-- 4000 -->
      <g transform="translate(337.660513 266.598437)scale(0.1 -0.1)">
       <defs>
        <path id="DejaVuSans-34" d="M 2419 4116 
L 825 1625 
L 2419 1625 
L 2419 4116 
z
M 2253 4666 
L 3047 4666 
L 3047 1625 
L 3713 1625 
L 3713 1100 
L 3047 1100 
L 3047 0 
L 2419 0 
L 2419 1100 
L 313 1100 
L 313 1709 
L 2253 4666 
z
" transform="scale(0.015625)"/>
       </defs>
       <use xlink:href="#DejaVuSans-34"/>
       <use xlink:href="#DejaVuSans-30" x="63.623047"/>
       <use xlink:href="#DejaVuSans-30" x="127.246094"/>
       <use xlink:href="#DejaVuSans-30" x="190.869141"/>
      </g>
     </g>
    </g>
   </g>
   <g id="matplotlib.axis_2">
    <g id="ytick_1">
     <g id="line2d_6">
      <defs>
       <path id="m3769de4e04" d="M 0 0 
L -3.5 0 
" style="stroke: #000000; stroke-width: 0.8"/>
      </defs>
      <g>
       <use xlink:href="#m3769de4e04" x="54" y="242.754018" style="stroke: #000000; stroke-width: 0.8"/>
      </g>
     </g>
     <g id="text_6">
      <!-- 0 -->
      <g transform="translate(40.6375 246.553236)scale(0.1 -0.1)">
       <use xlink:href="#DejaVuSans-30"/>
      </g>
     </g>
    </g>
    <g id="ytick_2">
     <g id="line2d_7">
      <g>
       <use xlink:href="#m3769de4e04" x="54" y="210.87132" style="stroke: #000000; stroke-width: 0.8"/>
      </g>
     </g>
     <g id="text_7">
      <!-- 50 -->
      <g transform="translate(34.275 214.670538)scale(0.1 -0.1)">
       <defs>
        <path id="DejaVuSans-35" d="M 691 4666 
L 3169 4666 
L 3169 4134 
L 1269 4134 
L 1269 2991 
Q 1406 3038 1543 3061 
Q 1681 3084 1819 3084 
Q 2600 3084 3056 2656 
Q 3513 2228 3513 1497 
Q 3513 744 3044 326 
Q 2575 -91 1722 -91 
Q 1428 -91 1123 -41 
Q 819 9 494 109 
L 494 744 
Q 775 591 1075 516 
Q 1375 441 1709 441 
Q 2250 441 2565 725 
Q 2881 1009 2881 1497 
Q 2881 1984 2565 2268 
Q 2250 2553 1709 2553 
Q 1456 2553 1204 2497 
Q 953 2441 691 2322 
L 691 4666 
z
" transform="scale(0.015625)"/>
       </defs>
       <use xlink:href="#DejaVuSans-35"/>
       <use xlink:href="#DejaVuSans-30" x="63.623047"/>
      </g>
     </g>
    </g>
    <g id="ytick_3">
     <g id="line2d_8">
      <g>
       <use xlink:href="#m3769de4e04" x="54" y="178.988622" style="stroke: #000000; stroke-width: 0.8"/>
      </g>
     </g>
     <g id="text_8">
      <!-- 100 -->
      <g transform="translate(27.9125 182.78784)scale(0.1 -0.1)">
       <use xlink:href="#DejaVuSans-31"/>
       <use xlink:href="#DejaVuSans-30" x="63.623047"/>
       <use xlink:href="#DejaVuSans-30" x="127.246094"/>
      </g>
     </g>
    </g>
    <g id="ytick_4">
     <g id="line2d_9">
      <g>
       <use xlink:href="#m3769de4e04" x="54" y="147.105924" style="stroke: #000000; stroke-width: 0.8"/>
      </g>
     </g>
     <g id="text_9">
      <!-- 150 -->
      <g transform="translate(27.9125 150.905143)scale(0.1 -0.1)">
       <use xlink:href="#DejaVuSans-31"/>
       <use xlink:href="#DejaVuSans-35" x="63.623047"/>
       <use xlink:href="#DejaVuSans-30" x="127.246094"/>
      </g>
     </g>
    </g>
    <g id="ytick_5">
     <g id="line2d_10">
      <g>
       <use xlink:href="#m3769de4e04" x="54" y="115.223226" style="stroke: #000000; stroke-width: 0.8"/>
      </g>
     </g>
     <g id="text_10">
      <!-- 200 -->
      <g transform="translate(27.9125 119.022445)scale(0.1 -0.1)">
       <use xlink:href="#DejaVuSans-32"/>
       <use xlink:href="#DejaVuSans-30" x="63.623047"/>
       <use xlink:href="#DejaVuSans-30" x="127.246094"/>
      </g>
     </g>
    </g>
    <g id="ytick_6">
     <g id="line2d_11">
      <g>
       <use xlink:href="#m3769de4e04" x="54" y="83.340528" style="stroke: #000000; stroke-width: 0.8"/>
      </g>
     </g>
     <g id="text_11">
      <!-- 250 -->
      <g transform="translate(27.9125 87.139747)scale(0.1 -0.1)">
       <use xlink:href="#DejaVuSans-32"/>
       <use xlink:href="#DejaVuSans-35" x="63.623047"/>
       <use xlink:href="#DejaVuSans-30" x="127.246094"/>
      </g>
     </g>
    </g>
    <g id="ytick_7">
     <g id="line2d_12">
      <g>
       <use xlink:href="#m3769de4e04" x="54" y="51.45783" style="stroke: #000000; stroke-width: 0.8"/>
      </g>
     </g>
     <g id="text_12">
      <!-- 300 -->
      <g transform="translate(27.9125 55.257049)scale(0.1 -0.1)">
       <use xlink:href="#DejaVuSans-33"/>
       <use xlink:href="#DejaVuSans-30" x="63.623047"/>
       <use xlink:href="#DejaVuSans-30" x="127.246094"/>
      </g>
     </g>
    </g>
   </g>
   <g id="line2d_13">
    <path d="M 69.218182 140.729384 
L 69.639933 153.482463 
L 70.764602 166.235543 
L 72.662482 166.235543 
L 73.576275 172.612082 
L 74.419777 172.612082 
L 75.755322 159.859003 
L 77.161159 185.365161 
L 78.848163 165.597889 
L 80.324291 152.844809 
L 80.956918 191.104047 
L 81.659836 242.116364 
L 83.065673 178.350968 
L 84.541801 191.104047 
L 85.596179 133.715191 
L 86.299097 101.832493 
L 87.212891 152.844809 
L 88.126685 210.233666 
L 89.110771 242.116364 
L 90.305732 152.844809 
L 91.00865 165.597889 
L 91.289817 229.363284 
L 91.641277 133.715191 
L 92.484779 165.597889 
L 93.820323 114.585572 
L 95.577619 114.585572 
L 97.826958 57.196716 
L 99.44367 95.455953 
L 100.146588 127.338651 
L 100.849507 152.844809 
L 102.185051 165.597889 
L 104.012639 165.597889 
L 106.121394 171.974428 
L 111.112114 171.974428 
L 113.009994 178.350968 
L 114.696998 171.974428 
L 116.805753 171.974428 
L 118.000714 178.350968 
L 119.195675 171.974428 
L 120.742095 171.974428 
L 122.569683 178.350968 
L 124.256687 216.610205 
L 126.013983 152.844809 
L 127.84157 197.480587 
L 129.387991 178.350968 
L 130.793827 171.974428 
L 132.41054 235.739824 
L 134.167835 184.727507 
L 135.433088 222.986745 
L 136.27659 242.116364 
L 137.330968 242.116364 
L 137.752719 222.986745 
L 138.17447 178.350968 
L 138.666513 152.844809 
L 138.877388 216.610205 
L 139.158556 210.233666 
L 139.439723 242.116364 
L 140.002058 242.116364 
L 140.212933 171.974428 
L 140.4941 197.480587 
L 140.775268 140.09173 
L 141.056435 203.857126 
L 141.337602 146.46827 
L 141.548478 140.09173 
L 142.040521 89.079413 
L 143.868108 222.986745 
L 145.133361 165.597889 
L 146.750073 159.221349 
L 148.577661 222.986745 
L 150.124081 127.338651 
L 150.756708 63.573255 
L 151.319043 127.338651 
L 152.443712 184.727507 
L 153.779257 242.116364 
L 155.04451 242.116364 
L 155.81772 114.585572 
L 156.661222 114.585572 
L 157.504724 165.597889 
L 159.613479 165.597889 
L 160.80844 184.727507 
L 162.284569 165.597889 
L 163.971573 171.974428 
L 172.266009 171.974428 
L 173.320386 178.350968 
L 174.655931 171.974428 
L 176.202351 216.610205 
L 177.397313 152.844809 
L 178.592274 165.597889 
L 179.99811 165.597889 
L 181.263363 171.974428 
L 182.458325 191.104047 
L 183.793869 235.739824 
L 185.34029 210.233666 
L 186.746126 191.104047 
L 188.011379 120.962111 
L 189.206341 133.715191 
L 190.541885 152.844809 
L 191.87743 165.597889 
L 193.072391 178.350968 
L 194.197061 165.597889 
L 195.602897 171.974428 
L 203.194415 171.974428 
L 205.162587 216.610205 
L 207.411925 216.610205 
L 209.309805 197.480587 
L 210.64535 235.739824 
L 211.137392 114.585572 
L 211.910603 178.350968 
L 213.667898 242.116364 
L 217.885408 242.116364 
L 220.064455 165.597889 
L 222.313794 191.104047 
L 224.281965 242.116364 
L 226.39072 133.715191 
L 228.077724 159.221349 
L 229.624144 114.585572 
L 231.38144 114.585572 
L 232.998152 95.455953 
L 234.82574 101.832493 
L 236.72362 140.09173 
L 238.410624 152.844809 
L 239.886752 165.597889 
L 241.222297 171.974428 
L 247.618854 171.974428 
L 249.516733 178.350968 
L 251.203737 171.974428 
L 253.031325 222.986745 
L 255.069788 242.116364 
L 262.872181 242.116364 
L 264.910645 114.585572 
L 267.089691 50.820176 
L 269.057863 69.949795 
L 270.744867 127.338651 
L 271.939828 171.974428 
L 272.853622 235.739824 
L 273.486248 197.480587 
L 274.048583 242.116364 
L 274.892085 146.46827 
L 275.665295 165.597889 
L 276.719672 229.363284 
L 278.125509 242.116364 
L 279.109595 242.116364 
L 280.09368 63.573255 
L 280.866891 76.326334 
L 282.553895 127.338651 
L 284.240899 146.46827 
L 285.927903 159.221349 
L 287.474323 165.597889 
L 288.458409 171.974428 
L 291.340374 171.974428 
L 293.589712 203.857126 
L 295.206425 242.116364 
L 296.612261 235.739824 
L 298.299265 222.986745 
L 300.126853 203.857126 
L 301.95444 216.610205 
L 303.500861 229.363284 
L 305.258157 159.221349 
L 307.156036 146.46827 
L 308.772748 89.079413 
L 310.248877 108.209032 
L 311.584422 101.832493 
L 312.849675 140.09173 
L 314.185219 152.844809 
L 315.239597 165.597889 
L 316.223683 229.363284 
L 317.137476 152.844809 
L 317.770103 171.974428 
L 318.82448 152.844809 
L 320.511484 165.597889 
L 322.409364 165.597889 
L 323.815201 171.974428 
L 325.642788 171.974428 
L 326.837749 191.104047 
L 328.595045 178.350968 
L 330.422633 242.116364 
L 332.320512 133.715191 
L 334.218392 152.844809 
L 336.186563 159.221349 
L 337.732983 171.974428 
L 338.787361 171.974428 
L 339.701155 191.104047 
L 340.193198 235.739824 
L 340.755532 235.739824 
L 341.80991 229.363284 
L 342.934579 197.480587 
L 344.270124 114.585572 
L 346.168003 89.079413 
L 347.995591 133.715191 
L 349.542011 152.844809 
L 351.299307 165.597889 
L 353.267478 165.597889 
L 354.743607 171.974428 
L 357.836448 171.974428 
L 360.085786 235.739824 
L 362.053958 242.116364 
L 366.201176 242.116364 
L 367.185261 216.610205 
L 367.958472 210.233666 
L 368.731682 120.962111 
L 369.4346 69.949795 
L 370.137518 44.443636 
L 370.840437 159.221349 
L 371.683939 222.986745 
L 372.246273 242.116364 
L 373.581818 242.116364 
L 373.581818 242.116364 
" clip-path="url(#pc259cac81c)" style="fill: none; stroke: #1f77b4; stroke-width: 1.5; stroke-linecap: square"/>
   </g>
   <g id="patch_3">
    <path d="M 54 252 
L 54 34.56 
" style="fill: none; stroke: #000000; stroke-width: 0.8; stroke-linejoin: miter; stroke-linecap: square"/>
   </g>
   <g id="patch_4">
    <path d="M 388.8 252 
L 388.8 34.56 
" style="fill: none; stroke: #000000; stroke-width: 0.8; stroke-linejoin: miter; stroke-linecap: square"/>
   </g>
   <g id="patch_5">
    <path d="M 54 252 
L 388.8 252 
" style="fill: none; stroke: #000000; stroke-width: 0.8; stroke-linejoin: miter; stroke-linecap: square"/>
   </g>
   <g id="patch_6">
    <path d="M 54 34.56 
L 388.8 34.56 
" style="fill: none; stroke: #000000; stroke-width: 0.8; stroke-linejoin: miter; stroke-linecap: square"/>
   </g>
  </g>
 </g>
 <defs>
  <clipPath id="pc259cac81c">
   <rect x="54" y="34.56" width="334.8" height="217.44"/>
  </clipPath>
 </defs>
</svg>
