<?xml version="1.0" encoding="utf-8" standalone="no"?>
<!DOCTYPE svg PUBLIC "-//W3C//DTD SVG 1.1//EN"
  "http://www.w3.org/Graphics/SVG/1.1/DTD/svg11.dtd">
<svg xmlns:xlink="http://www.w3.org/1999/xlink" width="432pt" height="288pt" viewBox="0 0 432 288" xmlns="http://www.w3.org/2000/svg" version="1.1">
 <metadata>
  <rdf:RDF xmlns:dc="http://purl.org/dc/elements/1.1/" xmlns:cc="http://creativecommons.org/ns#" xmlns:rdf="http://www.w3.org/1999/02/22-rdf-syntax-ns#">
   <cc:Work>
    <dc:type rdf:resource="http://purl.org/dc/dcmitype/StillImage"/>
    <dc:date>2022-02-20T19:00:46.152927</dc:date>
    <dc:format>image/svg+xml</dc:format>
    <dc:creator>
     <cc:Agent>
      <dc:title>Matplotlib v3.5.0, https://matplotlib.org/</dc:title>
     </cc:Agent>
    </dc:creator>
   </cc:Work>
  </rdf:RDF>
 </metadata>
 <defs>
  <style type="text/css">*{stroke-linejoin: round; stroke-linecap: butt}</style>
 </defs>
 <g id="figure_1">
  <g id="patch_1">
   <path d="M 0 288 
L 432 288 
L 432 0 
L 0 0 
L 0 288 
z
" style="fill: none"/>
  </g>
  <g id="axes_1">
   <g id="patch_2">
    <path d="M 54 252 
L 388.8 252 
L 388.8 34.56 
L 54 34.56 
z
" style="fill: #ffffff"/>
   </g>
   <g id="matplotlib.axis_1">
    <g id="xtick_1">
     <g id="line2d_1">
      <defs>
       <path id="m95c885c355" d="M 0 0 
L 0 3.5 
" style="stroke: #000000; stroke-width: 0.8"/>
      </defs>
      <g>
       <use xlink:href="#m95c885c355" x="69.218182" y="252" style="stroke: #000000; stroke-width: 0.8"/>
      </g>
     </g>
     <g id="text_1">
      <!-- 0 -->
      <g transform="translate(66.036932 266.598437)scale(0.1 -0.1)">
       <defs>
        <path id="DejaVuSans-30" d="M 2034 4250 
Q 1547 4250 1301 3770 
Q 1056 3291 1056 2328 
Q 1056 1369 1301 889 
Q 1547 409 2034 409 
Q 2525 409 2770 889 
Q 3016 1369 3016 2328 
Q 3016 3291 2770 3770 
Q 2525 4250 2034 4250 
z
M 2034 4750 
Q 2819 4750 3233 4129 
Q 3647 3509 3647 2328 
Q 3647 1150 3233 529 
Q 2819 -91 2034 -91 
Q 1250 -91 836 529 
Q 422 1150 422 2328 
Q 422 3509 836 4129 
Q 1250 4750 2034 4750 
z
" transform="scale(0.015625)"/>
       </defs>
       <use xlink:href="#DejaVuSans-30"/>
      </g>
     </g>
    </g>
    <g id="xtick_2">
     <g id="line2d_2">
      <g>
       <use xlink:href="#m95c885c355" x="126.215117" y="252" style="stroke: #000000; stroke-width: 0.8"/>
      </g>
     </g>
     <g id="text_2">
      <!-- 200 -->
      <g transform="translate(116.671367 266.598437)scale(0.1 -0.1)">
       <defs>
        <path id="DejaVuSans-32" d="M 1228 531 
L 3431 531 
L 3431 0 
L 469 0 
L 469 531 
Q 828 903 1448 1529 
Q 2069 2156 2228 2338 
Q 2531 2678 2651 2914 
Q 2772 3150 2772 3378 
Q 2772 3750 2511 3984 
Q 2250 4219 1831 4219 
Q 1534 4219 1204 4116 
Q 875 4013 500 3803 
L 500 4441 
Q 881 4594 1212 4672 
Q 1544 4750 1819 4750 
Q 2544 4750 2975 4387 
Q 3406 4025 3406 3419 
Q 3406 3131 3298 2873 
Q 3191 2616 2906 2266 
Q 2828 2175 2409 1742 
Q 1991 1309 1228 531 
z
" transform="scale(0.015625)"/>
       </defs>
       <use xlink:href="#DejaVuSans-32"/>
       <use xlink:href="#DejaVuSans-30" x="63.623047"/>
       <use xlink:href="#DejaVuSans-30" x="127.246094"/>
      </g>
     </g>
    </g>
    <g id="xtick_3">
     <g id="line2d_3">
      <g>
       <use xlink:href="#m95c885c355" x="183.212053" y="252" style="stroke: #000000; stroke-width: 0.8"/>
      </g>
     </g>
     <g id="text_3">
      <!-- 400 -->
      <g transform="translate(173.668303 266.598437)scale(0.1 -0.1)">
       <defs>
        <path id="DejaVuSans-34" d="M 2419 4116 
L 825 1625 
L 2419 1625 
L 2419 4116 
z
M 2253 4666 
L 3047 4666 
L 3047 1625 
L 3713 1625 
L 3713 1100 
L 3047 1100 
L 3047 0 
L 2419 0 
L 2419 1100 
L 313 1100 
L 313 1709 
L 2253 4666 
z
" transform="scale(0.015625)"/>
       </defs>
       <use xlink:href="#DejaVuSans-34"/>
       <use xlink:href="#DejaVuSans-30" x="63.623047"/>
       <use xlink:href="#DejaVuSans-30" x="127.246094"/>
      </g>
     </g>
    </g>
    <g id="xtick_4">
     <g id="line2d_4">
      <g>
       <use xlink:href="#m95c885c355" x="240.208989" y="252" style="stroke: #000000; stroke-width: 0.8"/>
      </g>
     </g>
     <g id="text_4">
      <!-- 600 -->
      <g transform="translate(230.665239 266.598437)scale(0.1 -0.1)">
       <defs>
        <path id="DejaVuSans-36" d="M 2113 2584 
Q 1688 2584 1439 2293 
Q 1191 2003 1191 1497 
Q 1191 994 1439 701 
Q 1688 409 2113 409 
Q 2538 409 2786 701 
Q 3034 994 3034 1497 
Q 3034 2003 2786 2293 
Q 2538 2584 2113 2584 
z
M 3366 4563 
L 3366 3988 
Q 3128 4100 2886 4159 
Q 2644 4219 2406 4219 
Q 1781 4219 1451 3797 
Q 1122 3375 1075 2522 
Q 1259 2794 1537 2939 
Q 1816 3084 2150 3084 
Q 2853 3084 3261 2657 
Q 3669 2231 3669 1497 
Q 3669 778 3244 343 
Q 2819 -91 2113 -91 
Q 1303 -91 875 529 
Q 447 1150 447 2328 
Q 447 3434 972 4092 
Q 1497 4750 2381 4750 
Q 2619 4750 2861 4703 
Q 3103 4656 3366 4563 
z
" transform="scale(0.015625)"/>
       </defs>
       <use xlink:href="#DejaVuSans-36"/>
       <use xlink:href="#DejaVuSans-30" x="63.623047"/>
       <use xlink:href="#DejaVuSans-30" x="127.246094"/>
      </g>
     </g>
    </g>
    <g id="xtick_5">
     <g id="line2d_5">
      <g>
       <use xlink:href="#m95c885c355" x="297.205924" y="252" style="stroke: #000000; stroke-width: 0.8"/>
      </g>
     </g>
     <g id="text_5">
      <!-- 800 -->
      <g transform="translate(287.662174 266.598437)scale(0.1 -0.1)">
       <defs>
        <path id="DejaVuSans-38" d="M 2034 2216 
Q 1584 2216 1326 1975 
Q 1069 1734 1069 1313 
Q 1069 891 1326 650 
Q 1584 409 2034 409 
Q 2484 409 2743 651 
Q 3003 894 3003 1313 
Q 3003 1734 2745 1975 
Q 2488 2216 2034 2216 
z
M 1403 2484 
Q 997 2584 770 2862 
Q 544 3141 544 3541 
Q 544 4100 942 4425 
Q 1341 4750 2034 4750 
Q 2731 4750 3128 4425 
Q 3525 4100 3525 3541 
Q 3525 3141 3298 2862 
Q 3072 2584 2669 2484 
Q 3125 2378 3379 2068 
Q 3634 1759 3634 1313 
Q 3634 634 3220 271 
Q 2806 -91 2034 -91 
Q 1263 -91 848 271 
Q 434 634 434 1313 
Q 434 1759 690 2068 
Q 947 2378 1403 2484 
z
M 1172 3481 
Q 1172 3119 1398 2916 
Q 1625 2713 2034 2713 
Q 2441 2713 2670 2916 
Q 2900 3119 2900 3481 
Q 2900 3844 2670 4047 
Q 2441 4250 2034 4250 
Q 1625 4250 1398 4047 
Q 1172 3844 1172 3481 
z
" transform="scale(0.015625)"/>
       </defs>
       <use xlink:href="#DejaVuSans-38"/>
       <use xlink:href="#DejaVuSans-30" x="63.623047"/>
       <use xlink:href="#DejaVuSans-30" x="127.246094"/>
      </g>
     </g>
    </g>
    <g id="xtick_6">
     <g id="line2d_6">
      <g>
       <use xlink:href="#m95c885c355" x="354.20286" y="252" style="stroke: #000000; stroke-width: 0.8"/>
      </g>
     </g>
     <g id="text_6">
      <!-- 1000 -->
      <g transform="translate(341.47786 266.598437)scale(0.1 -0.1)">
       <defs>
        <path id="DejaVuSans-31" d="M 794 531 
L 1825 531 
L 1825 4091 
L 703 3866 
L 703 4441 
L 1819 4666 
L 2450 4666 
L 2450 531 
L 3481 531 
L 3481 0 
L 794 0 
L 794 531 
z
" transform="scale(0.015625)"/>
       </defs>
       <use xlink:href="#DejaVuSans-31"/>
       <use xlink:href="#DejaVuSans-30" x="63.623047"/>
       <use xlink:href="#DejaVuSans-30" x="127.246094"/>
       <use xlink:href="#DejaVuSans-30" x="190.869141"/>
      </g>
     </g>
    </g>
   </g>
   <g id="matplotlib.axis_2">
    <g id="ytick_1">
     <g id="line2d_7">
      <defs>
       <path id="m27416591d8" d="M 0 0 
L -3.5 0 
" style="stroke: #000000; stroke-width: 0.8"/>
      </defs>
      <g>
       <use xlink:href="#m27416591d8" x="54" y="234.489132" style="stroke: #000000; stroke-width: 0.8"/>
      </g>
     </g>
     <g id="text_7">
      <!-- 200 -->
      <g transform="translate(27.9125 238.288351)scale(0.1 -0.1)">
       <use xlink:href="#DejaVuSans-32"/>
       <use xlink:href="#DejaVuSans-30" x="63.623047"/>
       <use xlink:href="#DejaVuSans-30" x="127.246094"/>
      </g>
     </g>
    </g>
    <g id="ytick_2">
     <g id="line2d_8">
      <g>
       <use xlink:href="#m27416591d8" x="54" y="188.263484" style="stroke: #000000; stroke-width: 0.8"/>
      </g>
     </g>
     <g id="text_8">
      <!-- 400 -->
      <g transform="translate(27.9125 192.062703)scale(0.1 -0.1)">
       <use xlink:href="#DejaVuSans-34"/>
       <use xlink:href="#DejaVuSans-30" x="63.623047"/>
       <use xlink:href="#DejaVuSans-30" x="127.246094"/>
      </g>
     </g>
    </g>
    <g id="ytick_3">
     <g id="line2d_9">
      <g>
       <use xlink:href="#m27416591d8" x="54" y="142.037836" style="stroke: #000000; stroke-width: 0.8"/>
      </g>
     </g>
     <g id="text_9">
      <!-- 600 -->
      <g transform="translate(27.9125 145.837055)scale(0.1 -0.1)">
       <use xlink:href="#DejaVuSans-36"/>
       <use xlink:href="#DejaVuSans-30" x="63.623047"/>
       <use xlink:href="#DejaVuSans-30" x="127.246094"/>
      </g>
     </g>
    </g>
    <g id="ytick_4">
     <g id="line2d_10">
      <g>
       <use xlink:href="#m27416591d8" x="54" y="95.812188" style="stroke: #000000; stroke-width: 0.8"/>
      </g>
     </g>
     <g id="text_10">
      <!-- 800 -->
      <g transform="translate(27.9125 99.611407)scale(0.1 -0.1)">
       <use xlink:href="#DejaVuSans-38"/>
       <use xlink:href="#DejaVuSans-30" x="63.623047"/>
       <use xlink:href="#DejaVuSans-30" x="127.246094"/>
      </g>
     </g>
    </g>
    <g id="ytick_5">
     <g id="line2d_11">
      <g>
       <use xlink:href="#m27416591d8" x="54" y="49.586541" style="stroke: #000000; stroke-width: 0.8"/>
      </g>
     </g>
     <g id="text_11">
      <!-- 1000 -->
      <g transform="translate(21.55 53.385759)scale(0.1 -0.1)">
       <use xlink:href="#DejaVuSans-31"/>
       <use xlink:href="#DejaVuSans-30" x="63.623047"/>
       <use xlink:href="#DejaVuSans-30" x="127.246094"/>
       <use xlink:href="#DejaVuSans-30" x="190.869141"/>
      </g>
     </g>
    </g>
   </g>
   <g id="line2d_12">
    <path d="M 69.218182 61.836337 
L 69.503166 62.529722 
L 69.788151 84.486905 
L 70.073136 96.96783 
L 70.643105 139.726554 
L 70.92809 154.981018 
L 71.498059 166.53743 
L 71.783044 171.159994 
L 72.068029 181.098509 
L 72.353013 186.414458 
L 73.492952 197.046357 
L 73.777937 198.664255 
L 76.057814 202.362307 
L 76.342799 202.593435 
L 76.912768 203.517948 
L 77.197753 203.749076 
L 78.052707 205.135845 
L 78.337692 205.366974 
L 78.907661 206.291487 
L 79.192646 206.522615 
L 79.47763 206.522615 
L 80.332584 207.216 
L 80.902554 207.216 
L 81.187538 207.447128 
L 82.897446 207.447128 
L 83.182431 207.678256 
L 83.467416 207.678256 
L 83.7524 207.909384 
L 84.32237 207.909384 
L 85.177324 208.602769 
L 85.747293 208.602769 
L 86.032278 208.833897 
L 86.887232 208.833897 
L 87.172217 209.065025 
L 87.742186 209.065025 
L 88.027171 209.296154 
L 88.882125 209.296154 
L 89.167109 209.527282 
L 89.452094 209.527282 
L 89.737079 209.75841 
L 90.307048 209.75841 
L 90.592033 209.989538 
L 91.162002 209.989538 
L 91.446987 210.220667 
L 92.586925 210.220667 
L 92.87191 210.451795 
L 93.441879 210.451795 
L 93.726864 210.682923 
L 95.436772 210.682923 
L 95.721757 210.914051 
L 97.71665 210.914051 
L 98.001634 211.14518 
L 109.686006 211.14518 
L 109.970991 210.914051 
L 110.825945 210.914051 
L 111.11093 211.14518 
L 114.530746 211.14518 
L 114.81573 211.376308 
L 117.095608 211.376308 
L 117.380592 211.607436 
L 119.090501 211.607436 
L 119.375485 211.838564 
L 123.650255 211.838564 
L 123.93524 212.069693 
L 129.349949 212.069693 
L 129.634934 212.300821 
L 147.588968 212.300821 
L 147.873953 212.531949 
L 155.283555 212.531949 
L 155.568539 212.763077 
L 156.138509 212.763077 
L 156.423493 212.994206 
L 157.278447 212.994206 
L 157.563432 212.763077 
L 158.703371 212.763077 
L 158.988355 212.994206 
L 160.983248 212.994206 
L 161.268233 213.225334 
L 163.54811 213.225334 
L 163.833095 213.456462 
L 167.252911 213.456462 
L 167.537896 213.68759 
L 169.247804 213.68759 
L 169.532789 213.918718 
L 170.387743 213.918718 
L 170.672727 214.149847 
L 170.957712 214.149847 
L 171.242697 214.380975 
L 172.382635 214.380975 
L 172.66762 214.612103 
L 173.522574 214.612103 
L 173.807559 214.843231 
L 174.092543 214.843231 
L 174.377528 215.07436 
L 174.947497 215.07436 
L 175.232482 215.305488 
L 176.087436 215.305488 
L 176.372421 215.536616 
L 176.94239 215.536616 
L 177.227375 215.767744 
L 182.072114 215.767744 
L 182.357099 215.536616 
L 203.445965 215.536616 
L 203.73095 215.767744 
L 204.870889 215.767744 
L 205.155873 215.998873 
L 206.010827 215.998873 
L 206.295812 216.230001 
L 206.865781 216.230001 
L 207.150766 216.461129 
L 217.410215 216.461129 
L 217.695199 216.230001 
L 221.969969 216.230001 
L 222.254954 216.461129 
L 224.534831 216.461129 
L 224.819816 216.692257 
L 229.664556 216.692257 
L 229.94954 216.923386 
L 231.659448 216.923386 
L 231.944433 216.692257 
L 237.644127 216.692257 
L 237.929111 216.923386 
L 240.493973 216.923386 
L 241.633912 217.847899 
L 243.058836 217.847899 
L 243.91379 218.541283 
L 244.483759 218.541283 
L 244.768744 218.772412 
L 245.053728 218.772412 
L 245.338713 219.00354 
L 246.478652 219.00354 
L 246.763636 219.234668 
L 247.333606 219.234668 
L 247.61859 219.00354 
L 248.758529 219.00354 
L 249.043514 218.772412 
L 250.468437 218.772412 
L 250.753422 218.541283 
L 251.038407 218.541283 
L 251.323391 218.772412 
L 253.603269 218.772412 
L 253.888253 219.00354 
L 254.458223 219.00354 
L 254.743207 219.234668 
L 255.028192 219.234668 
L 255.883146 219.928053 
L 256.168131 220.390309 
L 256.7381 220.852566 
L 257.593054 220.852566 
L 257.878039 220.621437 
L 263.007763 220.621437 
L 263.292748 220.852566 
L 265.002656 220.852566 
L 265.28764 221.083694 
L 266.142594 221.083694 
L 266.427579 221.314822 
L 266.712564 221.314822 
L 267.282533 221.777079 
L 268.422472 221.777079 
L 268.707457 221.54595 
L 270.13238 221.54595 
L 270.417365 221.314822 
L 270.987334 221.314822 
L 271.272319 221.54595 
L 271.842288 221.54595 
L 272.982227 222.470463 
L 277.541982 222.470463 
L 277.826966 222.239335 
L 281.246782 222.239335 
L 281.531767 222.470463 
L 283.241675 222.470463 
L 284.096629 223.163848 
L 284.381614 223.163848 
L 284.666599 223.394976 
L 285.521553 223.394976 
L 285.806537 223.626105 
L 286.661491 223.626105 
L 286.946476 223.857233 
L 288.086415 223.857233 
L 288.371399 224.088361 
L 288.656384 224.088361 
L 288.941369 224.319489 
L 289.511338 224.319489 
L 289.796323 224.088361 
L 298.060878 224.088361 
L 298.345863 224.319489 
L 299.200817 224.319489 
L 299.485802 224.550617 
L 300.055771 224.550617 
L 300.340756 224.781746 
L 301.765679 224.781746 
L 302.050664 224.550617 
L 309.460266 224.550617 
L 309.74525 224.319489 
L 310.600204 224.319489 
L 310.885189 224.550617 
L 311.455158 224.550617 
L 311.740143 224.319489 
L 314.02002 224.319489 
L 314.305005 224.550617 
L 315.729928 224.550617 
L 316.014913 224.781746 
L 316.584883 224.781746 
L 317.154852 225.244002 
L 317.439837 225.244002 
L 317.724821 225.47513 
L 318.009806 225.47513 
L 318.294791 225.706259 
L 321.144637 225.706259 
L 321.429622 225.937387 
L 321.714607 225.937387 
L 321.999591 225.706259 
L 324.849438 225.706259 
L 325.134423 225.937387 
L 325.419408 225.937387 
L 326.274362 226.630772 
L 326.844331 228.942054 
L 327.4143 230.79108 
L 327.699285 231.253336 
L 327.98427 231.484465 
L 328.269254 231.253336 
L 328.554239 231.253336 
L 328.839224 231.484465 
L 329.124208 232.408978 
L 329.694178 233.333491 
L 330.264147 234.951388 
L 330.834116 236.569286 
L 331.119101 236.338158 
L 331.404086 235.875901 
L 331.68907 235.644773 
L 331.974055 235.644773 
L 332.25904 235.875901 
L 333.113994 235.182516 
L 333.398979 235.413645 
L 334.823902 235.413645 
L 335.108887 235.182516 
L 335.393871 235.182516 
L 335.678856 235.644773 
L 335.963841 235.644773 
L 336.248825 235.875901 
L 337.103779 235.875901 
L 337.388764 235.644773 
L 338.813687 235.644773 
L 339.098672 235.413645 
L 339.383657 235.413645 
L 339.953626 235.875901 
L 340.238611 235.875901 
L 340.80858 235.413645 
L 341.37855 235.413645 
L 341.663534 235.182516 
L 342.233504 235.182516 
L 342.518488 234.951388 
L 343.373442 234.951388 
L 343.658427 235.413645 
L 343.943412 235.644773 
L 344.228396 236.107029 
L 344.513381 236.338158 
L 344.798366 236.338158 
L 345.08335 236.800414 
L 345.938304 237.493799 
L 346.223289 237.956055 
L 346.508274 238.187184 
L 346.793258 237.956055 
L 347.363228 237.956055 
L 347.648212 238.418312 
L 347.933197 238.64944 
L 348.503166 238.64944 
L 348.788151 238.880568 
L 349.073136 239.342825 
L 349.358121 239.573953 
L 349.643105 240.036209 
L 349.92809 240.267338 
L 350.213075 240.729594 
L 350.783044 241.191851 
L 351.068029 241.654107 
L 351.353013 241.885235 
L 352.492952 241.885235 
L 352.777937 241.654107 
L 353.347906 241.654107 
L 353.632891 241.422979 
L 353.917875 241.422979 
L 354.20286 241.191851 
L 354.487845 241.191851 
L 354.772829 240.960722 
L 356.482737 240.960722 
L 356.767722 241.191851 
L 357.052707 240.960722 
L 359.0476 240.960722 
L 359.332584 240.729594 
L 361.042492 240.729594 
L 362.182431 241.654107 
L 362.467416 241.654107 
L 362.7524 241.885235 
L 363.037385 241.654107 
L 363.607354 241.654107 
L 363.892339 241.422979 
L 365.602247 241.422979 
L 365.887232 241.191851 
L 367.312155 241.191851 
L 367.59714 241.422979 
L 367.882125 241.422979 
L 368.167109 241.654107 
L 369.022063 241.654107 
L 369.307048 241.885235 
L 369.877017 241.885235 
L 370.162002 242.116364 
L 370.731971 242.116364 
L 371.016956 241.885235 
L 373.296834 241.885235 
L 373.581818 242.116364 
L 373.581818 242.116364 
" clip-path="url(#pa7a3e370de)" style="fill: none; stroke: #1f77b4; stroke-width: 1.5; stroke-linecap: square"/>
   </g>
   <g id="line2d_13">
    <path d="M 69.218182 44.443636 
L 69.788151 92.370267 
L 70.358121 125.963045 
L 70.92809 149.514073 
L 71.498059 166.030236 
L 72.068029 177.618039 
L 72.637998 185.753224 
L 73.207967 191.469635 
L 73.777937 195.491546 
L 74.347906 198.326355 
L 74.917875 200.329526 
L 75.487845 201.750083 
L 76.342799 203.155393 
L 77.197753 204.015085 
L 78.052707 204.554844 
L 79.192646 204.997197 
L 80.902554 205.376692 
L 84.037385 205.786004 
L 98.286619 207.238342 
L 373.581818 235.001498 
L 373.581818 235.001498 
" clip-path="url(#pa7a3e370de)" style="fill: none; stroke: #ff7f0e; stroke-width: 1.5; stroke-linecap: square"/>
   </g>
   <g id="patch_3">
    <path d="M 54 252 
L 54 34.56 
" style="fill: none; stroke: #000000; stroke-width: 0.8; stroke-linejoin: miter; stroke-linecap: square"/>
   </g>
   <g id="patch_4">
    <path d="M 388.8 252 
L 388.8 34.56 
" style="fill: none; stroke: #000000; stroke-width: 0.8; stroke-linejoin: miter; stroke-linecap: square"/>
   </g>
   <g id="patch_5">
    <path d="M 54 252 
L 388.8 252 
" style="fill: none; stroke: #000000; stroke-width: 0.8; stroke-linejoin: miter; stroke-linecap: square"/>
   </g>
   <g id="patch_6">
    <path d="M 54 34.56 
L 388.8 34.56 
" style="fill: none; stroke: #000000; stroke-width: 0.8; stroke-linejoin: miter; stroke-linecap: square"/>
   </g>
  </g>
 </g>
 <defs>
  <clipPath id="pa7a3e370de">
   <rect x="54" y="34.56" width="334.8" height="217.44"/>
  </clipPath>
 </defs>
</svg>
