<?xml version="1.0" encoding="utf-8" standalone="no"?>
<!DOCTYPE svg PUBLIC "-//W3C//DTD SVG 1.1//EN"
  "http://www.w3.org/Graphics/SVG/1.1/DTD/svg11.dtd">
<svg xmlns:xlink="http://www.w3.org/1999/xlink" width="432pt" height="288pt" viewBox="0 0 432 288" xmlns="http://www.w3.org/2000/svg" version="1.1">
 <metadata>
  <rdf:RDF xmlns:dc="http://purl.org/dc/elements/1.1/" xmlns:cc="http://creativecommons.org/ns#" xmlns:rdf="http://www.w3.org/1999/02/22-rdf-syntax-ns#">
   <cc:Work>
    <dc:type rdf:resource="http://purl.org/dc/dcmitype/StillImage"/>
    <dc:date>2022-02-20T19:00:51.091144</dc:date>
    <dc:format>image/svg+xml</dc:format>
    <dc:creator>
     <cc:Agent>
      <dc:title>Matplotlib v3.5.0, https://matplotlib.org/</dc:title>
     </cc:Agent>
    </dc:creator>
   </cc:Work>
  </rdf:RDF>
 </metadata>
 <defs>
  <style type="text/css">*{stroke-linejoin: round; stroke-linecap: butt}</style>
 </defs>
 <g id="figure_1">
  <g id="patch_1">
   <path d="M 0 288 
L 432 288 
L 432 0 
L 0 0 
L 0 288 
z
" style="fill: none"/>
  </g>
  <g id="axes_1">
   <g id="patch_2">
    <path d="M 54 252 
L 388.8 252 
L 388.8 34.56 
L 54 34.56 
z
" style="fill: #ffffff"/>
   </g>
   <g id="matplotlib.axis_1">
    <g id="xtick_1">
     <g id="line2d_1">
      <defs>
       <path id="m3a55d10058" d="M 0 0 
L 0 3.5 
" style="stroke: #000000; stroke-width: 0.8"/>
      </defs>
      <g>
       <use xlink:href="#m3a55d10058" x="69.218182" y="252" style="stroke: #000000; stroke-width: 0.8"/>
      </g>
     </g>
     <g id="text_1">
      <!-- 0 -->
      <g transform="translate(66.036932 266.598437)scale(0.1 -0.1)">
       <defs>
        <path id="DejaVuSans-30" d="M 2034 4250 
Q 1547 4250 1301 3770 
Q 1056 3291 1056 2328 
Q 1056 1369 1301 889 
Q 1547 409 2034 409 
Q 2525 409 2770 889 
Q 3016 1369 3016 2328 
Q 3016 3291 2770 3770 
Q 2525 4250 2034 4250 
z
M 2034 4750 
Q 2819 4750 3233 4129 
Q 3647 3509 3647 2328 
Q 3647 1150 3233 529 
Q 2819 -91 2034 -91 
Q 1250 -91 836 529 
Q 422 1150 422 2328 
Q 422 3509 836 4129 
Q 1250 4750 2034 4750 
z
" transform="scale(0.015625)"/>
       </defs>
       <use xlink:href="#DejaVuSans-30"/>
      </g>
     </g>
    </g>
    <g id="xtick_2">
     <g id="line2d_2">
      <g>
       <use xlink:href="#m3a55d10058" x="112.146762" y="252" style="stroke: #000000; stroke-width: 0.8"/>
      </g>
     </g>
     <g id="text_2">
      <!-- 100 -->
      <g transform="translate(102.603012 266.598437)scale(0.1 -0.1)">
       <defs>
        <path id="DejaVuSans-31" d="M 794 531 
L 1825 531 
L 1825 4091 
L 703 3866 
L 703 4441 
L 1819 4666 
L 2450 4666 
L 2450 531 
L 3481 531 
L 3481 0 
L 794 0 
L 794 531 
z
" transform="scale(0.015625)"/>
       </defs>
       <use xlink:href="#DejaVuSans-31"/>
       <use xlink:href="#DejaVuSans-30" x="63.623047"/>
       <use xlink:href="#DejaVuSans-30" x="127.246094"/>
      </g>
     </g>
    </g>
    <g id="xtick_3">
     <g id="line2d_3">
      <g>
       <use xlink:href="#m3a55d10058" x="155.075343" y="252" style="stroke: #000000; stroke-width: 0.8"/>
      </g>
     </g>
     <g id="text_3">
      <!-- 200 -->
      <g transform="translate(145.531593 266.598437)scale(0.1 -0.1)">
       <defs>
        <path id="DejaVuSans-32" d="M 1228 531 
L 3431 531 
L 3431 0 
L 469 0 
L 469 531 
Q 828 903 1448 1529 
Q 2069 2156 2228 2338 
Q 2531 2678 2651 2914 
Q 2772 3150 2772 3378 
Q 2772 3750 2511 3984 
Q 2250 4219 1831 4219 
Q 1534 4219 1204 4116 
Q 875 4013 500 3803 
L 500 4441 
Q 881 4594 1212 4672 
Q 1544 4750 1819 4750 
Q 2544 4750 2975 4387 
Q 3406 4025 3406 3419 
Q 3406 3131 3298 2873 
Q 3191 2616 2906 2266 
Q 2828 2175 2409 1742 
Q 1991 1309 1228 531 
z
" transform="scale(0.015625)"/>
       </defs>
       <use xlink:href="#DejaVuSans-32"/>
       <use xlink:href="#DejaVuSans-30" x="63.623047"/>
       <use xlink:href="#DejaVuSans-30" x="127.246094"/>
      </g>
     </g>
    </g>
    <g id="xtick_4">
     <g id="line2d_4">
      <g>
       <use xlink:href="#m3a55d10058" x="198.003924" y="252" style="stroke: #000000; stroke-width: 0.8"/>
      </g>
     </g>
     <g id="text_4">
      <!-- 300 -->
      <g transform="translate(188.460174 266.598437)scale(0.1 -0.1)">
       <defs>
        <path id="DejaVuSans-33" d="M 2597 2516 
Q 3050 2419 3304 2112 
Q 3559 1806 3559 1356 
Q 3559 666 3084 287 
Q 2609 -91 1734 -91 
Q 1441 -91 1130 -33 
Q 819 25 488 141 
L 488 750 
Q 750 597 1062 519 
Q 1375 441 1716 441 
Q 2309 441 2620 675 
Q 2931 909 2931 1356 
Q 2931 1769 2642 2001 
Q 2353 2234 1838 2234 
L 1294 2234 
L 1294 2753 
L 1863 2753 
Q 2328 2753 2575 2939 
Q 2822 3125 2822 3475 
Q 2822 3834 2567 4026 
Q 2313 4219 1838 4219 
Q 1578 4219 1281 4162 
Q 984 4106 628 3988 
L 628 4550 
Q 988 4650 1302 4700 
Q 1616 4750 1894 4750 
Q 2613 4750 3031 4423 
Q 3450 4097 3450 3541 
Q 3450 3153 3228 2886 
Q 3006 2619 2597 2516 
z
" transform="scale(0.015625)"/>
       </defs>
       <use xlink:href="#DejaVuSans-33"/>
       <use xlink:href="#DejaVuSans-30" x="63.623047"/>
       <use xlink:href="#DejaVuSans-30" x="127.246094"/>
      </g>
     </g>
    </g>
    <g id="xtick_5">
     <g id="line2d_5">
      <g>
       <use xlink:href="#m3a55d10058" x="240.932504" y="252" style="stroke: #000000; stroke-width: 0.8"/>
      </g>
     </g>
     <g id="text_5">
      <!-- 400 -->
      <g transform="translate(231.388754 266.598437)scale(0.1 -0.1)">
       <defs>
        <path id="DejaVuSans-34" d="M 2419 4116 
L 825 1625 
L 2419 1625 
L 2419 4116 
z
M 2253 4666 
L 3047 4666 
L 3047 1625 
L 3713 1625 
L 3713 1100 
L 3047 1100 
L 3047 0 
L 2419 0 
L 2419 1100 
L 313 1100 
L 313 1709 
L 2253 4666 
z
" transform="scale(0.015625)"/>
       </defs>
       <use xlink:href="#DejaVuSans-34"/>
       <use xlink:href="#DejaVuSans-30" x="63.623047"/>
       <use xlink:href="#DejaVuSans-30" x="127.246094"/>
      </g>
     </g>
    </g>
    <g id="xtick_6">
     <g id="line2d_6">
      <g>
       <use xlink:href="#m3a55d10058" x="283.861085" y="252" style="stroke: #000000; stroke-width: 0.8"/>
      </g>
     </g>
     <g id="text_6">
      <!-- 500 -->
      <g transform="translate(274.317335 266.598437)scale(0.1 -0.1)">
       <defs>
        <path id="DejaVuSans-35" d="M 691 4666 
L 3169 4666 
L 3169 4134 
L 1269 4134 
L 1269 2991 
Q 1406 3038 1543 3061 
Q 1681 3084 1819 3084 
Q 2600 3084 3056 2656 
Q 3513 2228 3513 1497 
Q 3513 744 3044 326 
Q 2575 -91 1722 -91 
Q 1428 -91 1123 -41 
Q 819 9 494 109 
L 494 744 
Q 775 591 1075 516 
Q 1375 441 1709 441 
Q 2250 441 2565 725 
Q 2881 1009 2881 1497 
Q 2881 1984 2565 2268 
Q 2250 2553 1709 2553 
Q 1456 2553 1204 2497 
Q 953 2441 691 2322 
L 691 4666 
z
" transform="scale(0.015625)"/>
       </defs>
       <use xlink:href="#DejaVuSans-35"/>
       <use xlink:href="#DejaVuSans-30" x="63.623047"/>
       <use xlink:href="#DejaVuSans-30" x="127.246094"/>
      </g>
     </g>
    </g>
    <g id="xtick_7">
     <g id="line2d_7">
      <g>
       <use xlink:href="#m3a55d10058" x="326.789665" y="252" style="stroke: #000000; stroke-width: 0.8"/>
      </g>
     </g>
     <g id="text_7">
      <!-- 600 -->
      <g transform="translate(317.245915 266.598437)scale(0.1 -0.1)">
       <defs>
        <path id="DejaVuSans-36" d="M 2113 2584 
Q 1688 2584 1439 2293 
Q 1191 2003 1191 1497 
Q 1191 994 1439 701 
Q 1688 409 2113 409 
Q 2538 409 2786 701 
Q 3034 994 3034 1497 
Q 3034 2003 2786 2293 
Q 2538 2584 2113 2584 
z
M 3366 4563 
L 3366 3988 
Q 3128 4100 2886 4159 
Q 2644 4219 2406 4219 
Q 1781 4219 1451 3797 
Q 1122 3375 1075 2522 
Q 1259 2794 1537 2939 
Q 1816 3084 2150 3084 
Q 2853 3084 3261 2657 
Q 3669 2231 3669 1497 
Q 3669 778 3244 343 
Q 2819 -91 2113 -91 
Q 1303 -91 875 529 
Q 447 1150 447 2328 
Q 447 3434 972 4092 
Q 1497 4750 2381 4750 
Q 2619 4750 2861 4703 
Q 3103 4656 3366 4563 
z
" transform="scale(0.015625)"/>
       </defs>
       <use xlink:href="#DejaVuSans-36"/>
       <use xlink:href="#DejaVuSans-30" x="63.623047"/>
       <use xlink:href="#DejaVuSans-30" x="127.246094"/>
      </g>
     </g>
    </g>
    <g id="xtick_8">
     <g id="line2d_8">
      <g>
       <use xlink:href="#m3a55d10058" x="369.718246" y="252" style="stroke: #000000; stroke-width: 0.8"/>
      </g>
     </g>
     <g id="text_8">
      <!-- 700 -->
      <g transform="translate(360.174496 266.598437)scale(0.1 -0.1)">
       <defs>
        <path id="DejaVuSans-37" d="M 525 4666 
L 3525 4666 
L 3525 4397 
L 1831 0 
L 1172 0 
L 2766 4134 
L 525 4134 
L 525 4666 
z
" transform="scale(0.015625)"/>
       </defs>
       <use xlink:href="#DejaVuSans-37"/>
       <use xlink:href="#DejaVuSans-30" x="63.623047"/>
       <use xlink:href="#DejaVuSans-30" x="127.246094"/>
      </g>
     </g>
    </g>
   </g>
   <g id="matplotlib.axis_2">
    <g id="ytick_1">
     <g id="line2d_9">
      <defs>
       <path id="m5a79940a71" d="M 0 0 
L -3.5 0 
" style="stroke: #000000; stroke-width: 0.8"/>
      </defs>
      <g>
       <use xlink:href="#m5a79940a71" x="54" y="222.963317" style="stroke: #000000; stroke-width: 0.8"/>
      </g>
     </g>
     <g id="text_9">
      <!-- 200 -->
      <g transform="translate(27.9125 226.762536)scale(0.1 -0.1)">
       <use xlink:href="#DejaVuSans-32"/>
       <use xlink:href="#DejaVuSans-30" x="63.623047"/>
       <use xlink:href="#DejaVuSans-30" x="127.246094"/>
      </g>
     </g>
    </g>
    <g id="ytick_2">
     <g id="line2d_10">
      <g>
       <use xlink:href="#m5a79940a71" x="54" y="191.041572" style="stroke: #000000; stroke-width: 0.8"/>
      </g>
     </g>
     <g id="text_10">
      <!-- 250 -->
      <g transform="translate(27.9125 194.840791)scale(0.1 -0.1)">
       <use xlink:href="#DejaVuSans-32"/>
       <use xlink:href="#DejaVuSans-35" x="63.623047"/>
       <use xlink:href="#DejaVuSans-30" x="127.246094"/>
      </g>
     </g>
    </g>
    <g id="ytick_3">
     <g id="line2d_11">
      <g>
       <use xlink:href="#m5a79940a71" x="54" y="159.119828" style="stroke: #000000; stroke-width: 0.8"/>
      </g>
     </g>
     <g id="text_11">
      <!-- 300 -->
      <g transform="translate(27.9125 162.919047)scale(0.1 -0.1)">
       <use xlink:href="#DejaVuSans-33"/>
       <use xlink:href="#DejaVuSans-30" x="63.623047"/>
       <use xlink:href="#DejaVuSans-30" x="127.246094"/>
      </g>
     </g>
    </g>
    <g id="ytick_4">
     <g id="line2d_12">
      <g>
       <use xlink:href="#m5a79940a71" x="54" y="127.198083" style="stroke: #000000; stroke-width: 0.8"/>
      </g>
     </g>
     <g id="text_12">
      <!-- 350 -->
      <g transform="translate(27.9125 130.997302)scale(0.1 -0.1)">
       <use xlink:href="#DejaVuSans-33"/>
       <use xlink:href="#DejaVuSans-35" x="63.623047"/>
       <use xlink:href="#DejaVuSans-30" x="127.246094"/>
      </g>
     </g>
    </g>
    <g id="ytick_5">
     <g id="line2d_13">
      <g>
       <use xlink:href="#m5a79940a71" x="54" y="95.276339" style="stroke: #000000; stroke-width: 0.8"/>
      </g>
     </g>
     <g id="text_13">
      <!-- 400 -->
      <g transform="translate(27.9125 99.075558)scale(0.1 -0.1)">
       <use xlink:href="#DejaVuSans-34"/>
       <use xlink:href="#DejaVuSans-30" x="63.623047"/>
       <use xlink:href="#DejaVuSans-30" x="127.246094"/>
      </g>
     </g>
    </g>
    <g id="ytick_6">
     <g id="line2d_14">
      <g>
       <use xlink:href="#m5a79940a71" x="54" y="63.354594" style="stroke: #000000; stroke-width: 0.8"/>
      </g>
     </g>
     <g id="text_14">
      <!-- 450 -->
      <g transform="translate(27.9125 67.153813)scale(0.1 -0.1)">
       <use xlink:href="#DejaVuSans-34"/>
       <use xlink:href="#DejaVuSans-35" x="63.623047"/>
       <use xlink:href="#DejaVuSans-30" x="127.246094"/>
      </g>
     </g>
    </g>
   </g>
   <g id="line2d_15">
    <path d="M 69.218182 55.693376 
L 69.647468 56.970245 
L 70.935325 72.931118 
L 73.51104 102.299123 
L 73.940326 105.491297 
L 75.228183 122.090604 
L 76.086755 133.582432 
L 77.803898 148.266435 
L 79.950327 164.227307 
L 80.379613 165.504177 
L 82.096756 175.0807 
L 82.526042 176.996005 
L 83.813899 180.826614 
L 84.243185 181.465049 
L 84.672471 180.826614 
L 85.101757 181.465049 
L 85.960328 181.465049 
L 86.389614 182.741919 
L 88.106757 185.295658 
L 89.394615 189.126268 
L 91.111758 191.680007 
L 91.541044 193.595312 
L 92.399615 196.149052 
L 92.828901 196.149052 
L 94.546044 198.702791 
L 94.97533 199.979661 
L 95.833902 201.256531 
L 96.263188 201.256531 
L 96.692473 201.894966 
L 98.409617 201.894966 
L 98.838902 202.5334 
L 102.273189 202.5334 
L 102.702475 203.171835 
L 103.13176 203.171835 
L 103.561046 203.81027 
L 105.707475 203.81027 
L 106.136761 204.448705 
L 107.853904 204.448705 
L 108.28319 203.81027 
L 110.000333 203.81027 
L 110.429619 204.448705 
L 111.717477 204.448705 
L 112.146762 205.08714 
L 116.43962 205.08714 
L 116.868906 205.725575 
L 119.873907 205.725575 
L 120.303193 206.36401 
L 122.878908 206.36401 
L 123.308193 207.002445 
L 125.025337 207.002445 
L 125.454622 207.64088 
L 126.74248 207.64088 
L 127.171766 208.279314 
L 128.888909 208.279314 
L 129.318195 208.917749 
L 131.035338 208.917749 
L 131.464624 209.556184 
L 132.323195 209.556184 
L 132.752481 210.194619 
L 133.611053 210.194619 
L 134.040339 210.833054 
L 144.343198 210.833054 
L 144.772484 211.471489 
L 148.20677 211.471489 
L 148.636056 212.109924 
L 149.494628 212.109924 
L 149.923913 212.748359 
L 161.943916 212.748359 
L 162.373202 213.386794 
L 165.807488 213.386794 
L 166.236774 214.025228 
L 167.524631 214.025228 
L 167.953917 214.663663 
L 170.958918 214.663663 
L 171.388204 214.025228 
L 171.817489 214.025228 
L 172.246775 214.663663 
L 172.676061 214.663663 
L 173.105347 214.025228 
L 189.418207 214.025228 
L 189.847493 214.663663 
L 191.993922 214.663663 
L 192.423208 215.302098 
L 194.140351 215.302098 
L 194.569637 214.663663 
L 197.574638 214.663663 
L 198.003924 215.302098 
L 198.433209 215.302098 
L 199.291781 216.578968 
L 201.008924 216.578968 
L 201.43821 217.217403 
L 203.155353 217.217403 
L 203.584639 217.855838 
L 204.443211 217.855838 
L 204.872496 218.494273 
L 205.731068 218.494273 
L 206.160354 219.132708 
L 209.165355 219.132708 
L 209.59464 219.771142 
L 211.741069 219.771142 
L 212.170355 220.409577 
L 215.175356 220.409577 
L 215.604642 221.048012 
L 216.892499 221.048012 
L 217.321785 221.686447 
L 218.180356 221.686447 
L 218.609642 222.324882 
L 219.038928 221.686447 
L 219.8975 222.963317 
L 220.756071 222.963317 
L 221.185357 223.601752 
L 221.614643 223.601752 
L 222.043929 222.963317 
L 224.619644 222.963317 
L 225.048929 223.601752 
L 226.336787 223.601752 
L 226.766073 224.240187 
L 227.195358 224.240187 
L 227.624644 223.601752 
L 228.05393 224.240187 
L 229.771073 224.240187 
L 230.200359 224.878622 
L 230.629645 224.240187 
L 234.493217 224.240187 
L 234.922503 224.878622 
L 235.351789 224.240187 
L 238.356789 224.240187 
L 238.786075 224.878622 
L 239.215361 224.878622 
L 239.644647 224.240187 
L 240.503218 224.240187 
L 240.932504 224.878622 
L 246.942505 224.878622 
L 247.371791 225.517056 
L 261.108937 225.517056 
L 261.538223 226.155491 
L 261.967509 225.517056 
L 262.396794 225.517056 
L 262.82608 226.155491 
L 267.97751 226.155491 
L 268.406796 226.793926 
L 277.421798 226.793926 
L 277.851083 227.432361 
L 286.007514 227.432361 
L 286.4368 228.070796 
L 291.158943 228.070796 
L 291.588229 228.709231 
L 304.896089 228.709231 
L 305.325375 229.347666 
L 305.754661 228.709231 
L 306.183947 228.709231 
L 306.613232 229.347666 
L 321.638236 229.347666 
L 322.067521 229.986101 
L 327.218951 229.986101 
L 327.648237 230.624536 
L 330.223952 230.624536 
L 330.653238 231.26297 
L 331.511809 231.26297 
L 331.941095 231.901405 
L 333.228952 231.901405 
L 333.658238 232.53984 
L 334.51681 232.53984 
L 334.946096 233.178275 
L 336.233953 233.178275 
L 336.663239 233.81671 
L 340.097525 233.81671 
L 340.526811 233.178275 
L 344.819669 233.178275 
L 345.248955 232.53984 
L 349.112527 232.53984 
L 349.541813 231.901405 
L 355.9811 231.901405 
L 356.410386 232.53984 
L 359.844672 232.53984 
L 360.273958 233.178275 
L 362.849673 233.178275 
L 363.278959 233.81671 
L 364.996102 233.81671 
L 365.425388 234.455145 
L 366.283959 234.455145 
L 367.142531 235.732015 
L 367.571817 235.732015 
L 368.001103 236.37045 
L 368.859674 236.37045 
L 369.28896 237.008885 
L 369.718246 237.008885 
L 372.293961 240.839494 
L 372.723247 240.839494 
L 373.581818 242.116364 
L 373.581818 242.116364 
" clip-path="url(#p5b76f6123e)" style="fill: none; stroke: #1f77b4; stroke-width: 1.5; stroke-linecap: square"/>
   </g>
   <g id="line2d_16">
    <path d="M 69.218182 44.443636 
L 70.506039 67.078829 
L 71.793897 86.522067 
L 73.081754 103.226362 
L 74.369611 117.58043 
L 75.657469 129.917822 
L 76.945326 140.52475 
L 78.233184 149.646805 
L 79.521041 157.494724 
L 80.808899 164.249336 
L 82.096756 170.065805 
L 83.384613 175.077276 
L 84.672471 179.397994 
L 85.960328 183.125995 
L 87.677471 187.318295 
L 89.394615 190.772215 
L 91.111758 193.624063 
L 92.828901 195.984982 
L 94.546044 197.945601 
L 96.263188 199.579817 
L 97.980331 200.947884 
L 100.12676 202.357658 
L 102.273189 203.50418 
L 104.848904 204.614998 
L 107.853904 205.641217 
L 111.288191 206.564416 
L 115.581049 207.472356 
L 121.161764 208.408757 
L 129.318195 209.528065 
L 143.913912 211.267385 
L 195.857495 217.112219 
L 373.581818 237.034818 
L 373.581818 237.034818 
" clip-path="url(#p5b76f6123e)" style="fill: none; stroke: #ff7f0e; stroke-width: 1.5; stroke-linecap: square"/>
   </g>
   <g id="patch_3">
    <path d="M 54 252 
L 54 34.56 
" style="fill: none; stroke: #000000; stroke-width: 0.8; stroke-linejoin: miter; stroke-linecap: square"/>
   </g>
   <g id="patch_4">
    <path d="M 388.8 252 
L 388.8 34.56 
" style="fill: none; stroke: #000000; stroke-width: 0.8; stroke-linejoin: miter; stroke-linecap: square"/>
   </g>
   <g id="patch_5">
    <path d="M 54 252 
L 388.8 252 
" style="fill: none; stroke: #000000; stroke-width: 0.8; stroke-linejoin: miter; stroke-linecap: square"/>
   </g>
   <g id="patch_6">
    <path d="M 54 34.56 
L 388.8 34.56 
" style="fill: none; stroke: #000000; stroke-width: 0.8; stroke-linejoin: miter; stroke-linecap: square"/>
   </g>
  </g>
 </g>
 <defs>
  <clipPath id="p5b76f6123e">
   <rect x="54" y="34.56" width="334.8" height="217.44"/>
  </clipPath>
 </defs>
</svg>
