<?xml version="1.0" encoding="utf-8" standalone="no"?>
<!DOCTYPE svg PUBLIC "-//W3C//DTD SVG 1.1//EN"
  "http://www.w3.org/Graphics/SVG/1.1/DTD/svg11.dtd">
<svg xmlns:xlink="http://www.w3.org/1999/xlink" width="432pt" height="288pt" viewBox="0 0 432 288" xmlns="http://www.w3.org/2000/svg" version="1.1">
 <metadata>
  <rdf:RDF xmlns:dc="http://purl.org/dc/elements/1.1/" xmlns:cc="http://creativecommons.org/ns#" xmlns:rdf="http://www.w3.org/1999/02/22-rdf-syntax-ns#">
   <cc:Work>
    <dc:type rdf:resource="http://purl.org/dc/dcmitype/StillImage"/>
    <dc:date>2022-02-21T17:34:00.994368</dc:date>
    <dc:format>image/svg+xml</dc:format>
    <dc:creator>
     <cc:Agent>
      <dc:title>Matplotlib v3.5.0, https://matplotlib.org/</dc:title>
     </cc:Agent>
    </dc:creator>
   </cc:Work>
  </rdf:RDF>
 </metadata>
 <defs>
  <style type="text/css">*{stroke-linejoin: round; stroke-linecap: butt}</style>
 </defs>
 <g id="figure_1">
  <g id="patch_1">
   <path d="M 0 288 
L 432 288 
L 432 0 
L 0 0 
L 0 288 
z
" style="fill: none"/>
  </g>
  <g id="axes_1">
   <g id="patch_2">
    <path d="M 54 252 
L 388.8 252 
L 388.8 34.56 
L 54 34.56 
z
" style="fill: #ffffff"/>
   </g>
   <g id="matplotlib.axis_1">
    <g id="xtick_1">
     <g id="line2d_1">
      <defs>
       <path id="m4784f15ff4" d="M 0 0 
L 0 3.5 
" style="stroke: #000000; stroke-width: 0.8"/>
      </defs>
      <g>
       <use xlink:href="#m4784f15ff4" x="69.218182" y="252" style="stroke: #000000; stroke-width: 0.8"/>
      </g>
     </g>
     <g id="text_1">
      <!-- 0 -->
      <g transform="translate(66.036932 266.598437)scale(0.1 -0.1)">
       <defs>
        <path id="DejaVuSans-30" d="M 2034 4250 
Q 1547 4250 1301 3770 
Q 1056 3291 1056 2328 
Q 1056 1369 1301 889 
Q 1547 409 2034 409 
Q 2525 409 2770 889 
Q 3016 1369 3016 2328 
Q 3016 3291 2770 3770 
Q 2525 4250 2034 4250 
z
M 2034 4750 
Q 2819 4750 3233 4129 
Q 3647 3509 3647 2328 
Q 3647 1150 3233 529 
Q 2819 -91 2034 -91 
Q 1250 -91 836 529 
Q 422 1150 422 2328 
Q 422 3509 836 4129 
Q 1250 4750 2034 4750 
z
" transform="scale(0.015625)"/>
       </defs>
       <use xlink:href="#DejaVuSans-30"/>
      </g>
     </g>
    </g>
    <g id="xtick_2">
     <g id="line2d_2">
      <g>
       <use xlink:href="#m4784f15ff4" x="135.745753" y="252" style="stroke: #000000; stroke-width: 0.8"/>
      </g>
     </g>
     <g id="text_2">
      <!-- 200 -->
      <g transform="translate(126.202003 266.598437)scale(0.1 -0.1)">
       <defs>
        <path id="DejaVuSans-32" d="M 1228 531 
L 3431 531 
L 3431 0 
L 469 0 
L 469 531 
Q 828 903 1448 1529 
Q 2069 2156 2228 2338 
Q 2531 2678 2651 2914 
Q 2772 3150 2772 3378 
Q 2772 3750 2511 3984 
Q 2250 4219 1831 4219 
Q 1534 4219 1204 4116 
Q 875 4013 500 3803 
L 500 4441 
Q 881 4594 1212 4672 
Q 1544 4750 1819 4750 
Q 2544 4750 2975 4387 
Q 3406 4025 3406 3419 
Q 3406 3131 3298 2873 
Q 3191 2616 2906 2266 
Q 2828 2175 2409 1742 
Q 1991 1309 1228 531 
z
" transform="scale(0.015625)"/>
       </defs>
       <use xlink:href="#DejaVuSans-32"/>
       <use xlink:href="#DejaVuSans-30" x="63.623047"/>
       <use xlink:href="#DejaVuSans-30" x="127.246094"/>
      </g>
     </g>
    </g>
    <g id="xtick_3">
     <g id="line2d_3">
      <g>
       <use xlink:href="#m4784f15ff4" x="202.273323" y="252" style="stroke: #000000; stroke-width: 0.8"/>
      </g>
     </g>
     <g id="text_3">
      <!-- 400 -->
      <g transform="translate(192.729573 266.598437)scale(0.1 -0.1)">
       <defs>
        <path id="DejaVuSans-34" d="M 2419 4116 
L 825 1625 
L 2419 1625 
L 2419 4116 
z
M 2253 4666 
L 3047 4666 
L 3047 1625 
L 3713 1625 
L 3713 1100 
L 3047 1100 
L 3047 0 
L 2419 0 
L 2419 1100 
L 313 1100 
L 313 1709 
L 2253 4666 
z
" transform="scale(0.015625)"/>
       </defs>
       <use xlink:href="#DejaVuSans-34"/>
       <use xlink:href="#DejaVuSans-30" x="63.623047"/>
       <use xlink:href="#DejaVuSans-30" x="127.246094"/>
      </g>
     </g>
    </g>
    <g id="xtick_4">
     <g id="line2d_4">
      <g>
       <use xlink:href="#m4784f15ff4" x="268.800894" y="252" style="stroke: #000000; stroke-width: 0.8"/>
      </g>
     </g>
     <g id="text_4">
      <!-- 600 -->
      <g transform="translate(259.257144 266.598437)scale(0.1 -0.1)">
       <defs>
        <path id="DejaVuSans-36" d="M 2113 2584 
Q 1688 2584 1439 2293 
Q 1191 2003 1191 1497 
Q 1191 994 1439 701 
Q 1688 409 2113 409 
Q 2538 409 2786 701 
Q 3034 994 3034 1497 
Q 3034 2003 2786 2293 
Q 2538 2584 2113 2584 
z
M 3366 4563 
L 3366 3988 
Q 3128 4100 2886 4159 
Q 2644 4219 2406 4219 
Q 1781 4219 1451 3797 
Q 1122 3375 1075 2522 
Q 1259 2794 1537 2939 
Q 1816 3084 2150 3084 
Q 2853 3084 3261 2657 
Q 3669 2231 3669 1497 
Q 3669 778 3244 343 
Q 2819 -91 2113 -91 
Q 1303 -91 875 529 
Q 447 1150 447 2328 
Q 447 3434 972 4092 
Q 1497 4750 2381 4750 
Q 2619 4750 2861 4703 
Q 3103 4656 3366 4563 
z
" transform="scale(0.015625)"/>
       </defs>
       <use xlink:href="#DejaVuSans-36"/>
       <use xlink:href="#DejaVuSans-30" x="63.623047"/>
       <use xlink:href="#DejaVuSans-30" x="127.246094"/>
      </g>
     </g>
    </g>
    <g id="xtick_5">
     <g id="line2d_5">
      <g>
       <use xlink:href="#m4784f15ff4" x="335.328465" y="252" style="stroke: #000000; stroke-width: 0.8"/>
      </g>
     </g>
     <g id="text_5">
      <!-- 800 -->
      <g transform="translate(325.784715 266.598437)scale(0.1 -0.1)">
       <defs>
        <path id="DejaVuSans-38" d="M 2034 2216 
Q 1584 2216 1326 1975 
Q 1069 1734 1069 1313 
Q 1069 891 1326 650 
Q 1584 409 2034 409 
Q 2484 409 2743 651 
Q 3003 894 3003 1313 
Q 3003 1734 2745 1975 
Q 2488 2216 2034 2216 
z
M 1403 2484 
Q 997 2584 770 2862 
Q 544 3141 544 3541 
Q 544 4100 942 4425 
Q 1341 4750 2034 4750 
Q 2731 4750 3128 4425 
Q 3525 4100 3525 3541 
Q 3525 3141 3298 2862 
Q 3072 2584 2669 2484 
Q 3125 2378 3379 2068 
Q 3634 1759 3634 1313 
Q 3634 634 3220 271 
Q 2806 -91 2034 -91 
Q 1263 -91 848 271 
Q 434 634 434 1313 
Q 434 1759 690 2068 
Q 947 2378 1403 2484 
z
M 1172 3481 
Q 1172 3119 1398 2916 
Q 1625 2713 2034 2713 
Q 2441 2713 2670 2916 
Q 2900 3119 2900 3481 
Q 2900 3844 2670 4047 
Q 2441 4250 2034 4250 
Q 1625 4250 1398 4047 
Q 1172 3844 1172 3481 
z
" transform="scale(0.015625)"/>
       </defs>
       <use xlink:href="#DejaVuSans-38"/>
       <use xlink:href="#DejaVuSans-30" x="63.623047"/>
       <use xlink:href="#DejaVuSans-30" x="127.246094"/>
      </g>
     </g>
    </g>
   </g>
   <g id="matplotlib.axis_2">
    <g id="ytick_1">
     <g id="line2d_6">
      <defs>
       <path id="m350262fefd" d="M 0 0 
L -3.5 0 
" style="stroke: #000000; stroke-width: 0.8"/>
      </defs>
      <g>
       <use xlink:href="#m350262fefd" x="54" y="208.654985" style="stroke: #000000; stroke-width: 0.8"/>
      </g>
     </g>
     <g id="text_6">
      <!-- 150 -->
      <g transform="translate(27.9125 212.454204)scale(0.1 -0.1)">
       <defs>
        <path id="DejaVuSans-31" d="M 794 531 
L 1825 531 
L 1825 4091 
L 703 3866 
L 703 4441 
L 1819 4666 
L 2450 4666 
L 2450 531 
L 3481 531 
L 3481 0 
L 794 0 
L 794 531 
z
" transform="scale(0.015625)"/>
        <path id="DejaVuSans-35" d="M 691 4666 
L 3169 4666 
L 3169 4134 
L 1269 4134 
L 1269 2991 
Q 1406 3038 1543 3061 
Q 1681 3084 1819 3084 
Q 2600 3084 3056 2656 
Q 3513 2228 3513 1497 
Q 3513 744 3044 326 
Q 2575 -91 1722 -91 
Q 1428 -91 1123 -41 
Q 819 9 494 109 
L 494 744 
Q 775 591 1075 516 
Q 1375 441 1709 441 
Q 2250 441 2565 725 
Q 2881 1009 2881 1497 
Q 2881 1984 2565 2268 
Q 2250 2553 1709 2553 
Q 1456 2553 1204 2497 
Q 953 2441 691 2322 
L 691 4666 
z
" transform="scale(0.015625)"/>
       </defs>
       <use xlink:href="#DejaVuSans-31"/>
       <use xlink:href="#DejaVuSans-35" x="63.623047"/>
       <use xlink:href="#DejaVuSans-30" x="127.246094"/>
      </g>
     </g>
    </g>
    <g id="ytick_2">
     <g id="line2d_7">
      <g>
       <use xlink:href="#m350262fefd" x="54" y="162.267598" style="stroke: #000000; stroke-width: 0.8"/>
      </g>
     </g>
     <g id="text_7">
      <!-- 200 -->
      <g transform="translate(27.9125 166.066817)scale(0.1 -0.1)">
       <use xlink:href="#DejaVuSans-32"/>
       <use xlink:href="#DejaVuSans-30" x="63.623047"/>
       <use xlink:href="#DejaVuSans-30" x="127.246094"/>
      </g>
     </g>
    </g>
    <g id="ytick_3">
     <g id="line2d_8">
      <g>
       <use xlink:href="#m350262fefd" x="54" y="115.880212" style="stroke: #000000; stroke-width: 0.8"/>
      </g>
     </g>
     <g id="text_8">
      <!-- 250 -->
      <g transform="translate(27.9125 119.67943)scale(0.1 -0.1)">
       <use xlink:href="#DejaVuSans-32"/>
       <use xlink:href="#DejaVuSans-35" x="63.623047"/>
       <use xlink:href="#DejaVuSans-30" x="127.246094"/>
      </g>
     </g>
    </g>
    <g id="ytick_4">
     <g id="line2d_9">
      <g>
       <use xlink:href="#m350262fefd" x="54" y="69.492825" style="stroke: #000000; stroke-width: 0.8"/>
      </g>
     </g>
     <g id="text_9">
      <!-- 300 -->
      <g transform="translate(27.9125 73.292044)scale(0.1 -0.1)">
       <defs>
        <path id="DejaVuSans-33" d="M 2597 2516 
Q 3050 2419 3304 2112 
Q 3559 1806 3559 1356 
Q 3559 666 3084 287 
Q 2609 -91 1734 -91 
Q 1441 -91 1130 -33 
Q 819 25 488 141 
L 488 750 
Q 750 597 1062 519 
Q 1375 441 1716 441 
Q 2309 441 2620 675 
Q 2931 909 2931 1356 
Q 2931 1769 2642 2001 
Q 2353 2234 1838 2234 
L 1294 2234 
L 1294 2753 
L 1863 2753 
Q 2328 2753 2575 2939 
Q 2822 3125 2822 3475 
Q 2822 3834 2567 4026 
Q 2313 4219 1838 4219 
Q 1578 4219 1281 4162 
Q 984 4106 628 3988 
L 628 4550 
Q 988 4650 1302 4700 
Q 1616 4750 1894 4750 
Q 2613 4750 3031 4423 
Q 3450 4097 3450 3541 
Q 3450 3153 3228 2886 
Q 3006 2619 2597 2516 
z
" transform="scale(0.015625)"/>
       </defs>
       <use xlink:href="#DejaVuSans-33"/>
       <use xlink:href="#DejaVuSans-30" x="63.623047"/>
       <use xlink:href="#DejaVuSans-30" x="127.246094"/>
      </g>
     </g>
    </g>
   </g>
   <g id="line2d_10">
    <path d="M 69.218182 44.443636 
L 69.55082 53.721114 
L 69.883458 88.04778 
L 70.216095 105.674987 
L 70.548733 111.241473 
L 70.881371 123.302194 
L 71.214009 127.013185 
L 71.546647 125.157689 
L 72.211923 138.146157 
L 72.54456 142.784896 
L 72.877198 143.712644 
L 73.209836 143.712644 
L 73.542474 144.640391 
L 74.873025 154.845616 
L 75.205663 156.701112 
L 77.866766 178.967058 
L 78.532042 180.822553 
L 78.86468 182.678048 
L 79.862593 185.461292 
L 80.195231 187.316787 
L 81.193145 190.10003 
L 81.525782 190.10003 
L 81.85842 191.027778 
L 82.191058 191.027778 
L 82.523696 191.955526 
L 82.856334 191.955526 
L 83.52161 193.811021 
L 83.854247 193.811021 
L 84.186885 194.738769 
L 84.519523 194.738769 
L 84.852161 195.666517 
L 85.184799 195.666517 
L 85.517437 196.594264 
L 85.850075 196.594264 
L 86.182712 197.522012 
L 86.51535 197.522012 
L 86.847988 198.44976 
L 87.180626 198.44976 
L 87.513264 199.377508 
L 88.178539 199.377508 
L 88.511177 200.305255 
L 88.843815 200.305255 
L 89.176453 201.233003 
L 89.841729 201.233003 
L 90.174367 202.160751 
L 90.507004 202.160751 
L 90.839642 203.088499 
L 91.837556 203.088499 
L 92.170194 204.016246 
L 93.168107 204.016246 
L 93.500745 204.943994 
L 94.166021 204.943994 
L 94.498659 205.871742 
L 95.82921 205.871742 
L 96.161848 206.799489 
L 97.159762 206.799489 
L 97.492399 207.727237 
L 98.490313 207.727237 
L 98.822951 208.654985 
L 99.820864 208.654985 
L 100.153502 209.582733 
L 101.816692 209.582733 
L 102.149329 210.51048 
L 103.147243 210.51048 
L 103.479881 211.438228 
L 105.14307 211.438228 
L 105.475708 212.365976 
L 107.138897 212.365976 
L 107.471535 213.293724 
L 109.8 213.293724 
L 110.132638 214.221471 
L 112.461103 214.221471 
L 112.793741 215.149219 
L 115.454844 215.149219 
L 115.787481 216.076967 
L 119.779136 216.076967 
L 120.111773 217.004715 
L 123.77079 217.004715 
L 124.103428 217.932462 
L 126.099255 217.932462 
L 126.431893 218.86021 
L 131.088823 218.86021 
L 131.421461 219.787958 
L 134.747839 219.787958 
L 135.080477 220.715705 
L 139.072131 220.715705 
L 139.404769 221.643453 
L 145.39225 221.643453 
L 145.724888 222.571201 
L 175.662295 222.571201 
L 175.994933 223.498949 
L 176.992846 223.498949 
L 177.325484 224.426696 
L 178.988674 224.426696 
L 179.321311 225.354444 
L 183.645604 225.354444 
L 183.978241 226.282192 
L 184.310879 225.354444 
L 184.643517 226.282192 
L 184.976155 226.282192 
L 185.308793 225.354444 
L 190.298361 225.354444 
L 190.630999 226.282192 
L 192.626826 226.282192 
L 192.959463 225.354444 
L 193.957377 225.354444 
L 194.290015 226.282192 
L 201.27541 226.282192 
L 201.608048 225.354444 
L 201.940686 225.354444 
L 202.273323 226.282192 
L 208.593443 226.282192 
L 208.92608 227.20994 
L 209.591356 227.20994 
L 209.923994 226.282192 
L 222.89687 226.282192 
L 223.229508 227.20994 
L 223.562146 226.282192 
L 225.890611 226.282192 
L 226.223249 227.20994 
L 227.221162 227.20994 
L 227.5538 226.282192 
L 227.886438 227.20994 
L 228.219076 227.20994 
L 228.551714 226.282192 
L 229.882265 226.282192 
L 230.214903 227.20994 
L 247.844709 227.20994 
L 248.177347 228.137687 
L 252.169001 228.137687 
L 252.501639 229.065435 
L 269.798808 229.065435 
L 270.131446 229.993183 
L 271.129359 229.993183 
L 271.461997 230.920931 
L 272.459911 230.920931 
L 272.792548 231.848678 
L 274.788376 231.848678 
L 275.121013 232.776426 
L 275.453651 232.776426 
L 275.786289 231.848678 
L 281.441133 231.848678 
L 281.77377 232.776426 
L 284.767511 232.776426 
L 285.100149 233.704174 
L 286.763338 233.704174 
L 287.095976 234.631921 
L 291.08763 234.631921 
L 291.420268 233.704174 
L 293.748733 233.704174 
L 294.081371 234.631921 
L 299.403577 234.631921 
L 299.736215 235.559669 
L 303.395231 235.559669 
L 303.727869 236.487417 
L 305.391058 236.487417 
L 305.723696 237.415165 
L 334.663189 237.415165 
L 334.995827 238.342912 
L 353.623547 238.342912 
L 353.956185 239.27066 
L 354.621461 239.27066 
L 354.954098 240.198408 
L 355.619374 240.198408 
L 355.952012 241.126156 
L 368.259613 241.126156 
L 368.59225 240.198408 
L 368.924888 240.198408 
L 369.590164 242.053903 
L 370.920715 242.053903 
L 371.253353 241.126156 
L 371.918629 241.126156 
L 372.251267 242.053903 
L 373.581818 242.053903 
L 373.581818 242.053903 
" clip-path="url(#ped7804fe0f)" style="fill: none; stroke: #1f77b4; stroke-width: 1.5; stroke-linecap: square"/>
   </g>
   <g id="line2d_11">
    <path d="M 69.218182 80.594973 
L 70.548733 103.517401 
L 71.879285 122.47511 
L 73.209836 138.157862 
L 74.540387 151.135421 
L 75.870939 161.878424 
L 77.20149 170.775629 
L 78.532042 178.148159 
L 79.862593 184.261271 
L 81.193145 189.334072 
L 82.523696 193.54755 
L 83.854247 197.051208 
L 85.184799 199.968537 
L 86.51535 202.401542 
L 87.845902 204.434486 
L 89.509091 206.517925 
L 91.17228 208.194055 
L 92.835469 209.549435 
L 94.831297 210.847421 
L 96.827124 211.871775 
L 99.155589 212.81102 
L 101.816692 213.642346 
L 105.14307 214.436496 
L 109.467362 215.218086 
L 115.454844 216.051713 
L 125.433979 217.182904 
L 151.71237 219.858816 
L 373.581818 242.116364 
L 373.581818 242.116364 
" clip-path="url(#ped7804fe0f)" style="fill: none; stroke: #ff7f0e; stroke-width: 1.5; stroke-linecap: square"/>
   </g>
   <g id="patch_3">
    <path d="M 54 252 
L 54 34.56 
" style="fill: none; stroke: #000000; stroke-width: 0.8; stroke-linejoin: miter; stroke-linecap: square"/>
   </g>
   <g id="patch_4">
    <path d="M 388.8 252 
L 388.8 34.56 
" style="fill: none; stroke: #000000; stroke-width: 0.8; stroke-linejoin: miter; stroke-linecap: square"/>
   </g>
   <g id="patch_5">
    <path d="M 54 252 
L 388.8 252 
" style="fill: none; stroke: #000000; stroke-width: 0.8; stroke-linejoin: miter; stroke-linecap: square"/>
   </g>
   <g id="patch_6">
    <path d="M 54 34.56 
L 388.8 34.56 
" style="fill: none; stroke: #000000; stroke-width: 0.8; stroke-linejoin: miter; stroke-linecap: square"/>
   </g>
  </g>
 </g>
 <defs>
  <clipPath id="ped7804fe0f">
   <rect x="54" y="34.56" width="334.8" height="217.44"/>
  </clipPath>
 </defs>
</svg>
