<?xml version="1.0" encoding="utf-8" standalone="no"?>
<!DOCTYPE svg PUBLIC "-//W3C//DTD SVG 1.1//EN"
  "http://www.w3.org/Graphics/SVG/1.1/DTD/svg11.dtd">
<svg xmlns:xlink="http://www.w3.org/1999/xlink" width="432pt" height="288pt" viewBox="0 0 432 288" xmlns="http://www.w3.org/2000/svg" version="1.1">
 <metadata>
  <rdf:RDF xmlns:dc="http://purl.org/dc/elements/1.1/" xmlns:cc="http://creativecommons.org/ns#" xmlns:rdf="http://www.w3.org/1999/02/22-rdf-syntax-ns#">
   <cc:Work>
    <dc:type rdf:resource="http://purl.org/dc/dcmitype/StillImage"/>
    <dc:date>2022-02-20T22:25:53.585804</dc:date>
    <dc:format>image/svg+xml</dc:format>
    <dc:creator>
     <cc:Agent>
      <dc:title>Matplotlib v3.5.0, https://matplotlib.org/</dc:title>
     </cc:Agent>
    </dc:creator>
   </cc:Work>
  </rdf:RDF>
 </metadata>
 <defs>
  <style type="text/css">*{stroke-linejoin: round; stroke-linecap: butt}</style>
 </defs>
 <g id="figure_1">
  <g id="patch_1">
   <path d="M 0 288 
L 432 288 
L 432 0 
L 0 0 
L 0 288 
z
" style="fill: none"/>
  </g>
  <g id="axes_1">
   <g id="patch_2">
    <path d="M 54 252 
L 388.8 252 
L 388.8 34.56 
L 54 34.56 
z
" style="fill: #ffffff"/>
   </g>
   <g id="matplotlib.axis_1">
    <g id="xtick_1">
     <g id="line2d_1">
      <defs>
       <path id="m58b1e0903a" d="M 0 0 
L 0 3.5 
" style="stroke: #000000; stroke-width: 0.8"/>
      </defs>
      <g>
       <use xlink:href="#m58b1e0903a" x="69.218182" y="252" style="stroke: #000000; stroke-width: 0.8"/>
      </g>
     </g>
     <g id="text_1">
      <!-- 0 -->
      <g transform="translate(66.036932 266.598437)scale(0.1 -0.1)">
       <defs>
        <path id="DejaVuSans-30" d="M 2034 4250 
Q 1547 4250 1301 3770 
Q 1056 3291 1056 2328 
Q 1056 1369 1301 889 
Q 1547 409 2034 409 
Q 2525 409 2770 889 
Q 3016 1369 3016 2328 
Q 3016 3291 2770 3770 
Q 2525 4250 2034 4250 
z
M 2034 4750 
Q 2819 4750 3233 4129 
Q 3647 3509 3647 2328 
Q 3647 1150 3233 529 
Q 2819 -91 2034 -91 
Q 1250 -91 836 529 
Q 422 1150 422 2328 
Q 422 3509 836 4129 
Q 1250 4750 2034 4750 
z
" transform="scale(0.015625)"/>
       </defs>
       <use xlink:href="#DejaVuSans-30"/>
      </g>
     </g>
    </g>
    <g id="xtick_2">
     <g id="line2d_2">
      <g>
       <use xlink:href="#m58b1e0903a" x="135.891487" y="252" style="stroke: #000000; stroke-width: 0.8"/>
      </g>
     </g>
     <g id="text_2">
      <!-- 200 -->
      <g transform="translate(126.347737 266.598437)scale(0.1 -0.1)">
       <defs>
        <path id="DejaVuSans-32" d="M 1228 531 
L 3431 531 
L 3431 0 
L 469 0 
L 469 531 
Q 828 903 1448 1529 
Q 2069 2156 2228 2338 
Q 2531 2678 2651 2914 
Q 2772 3150 2772 3378 
Q 2772 3750 2511 3984 
Q 2250 4219 1831 4219 
Q 1534 4219 1204 4116 
Q 875 4013 500 3803 
L 500 4441 
Q 881 4594 1212 4672 
Q 1544 4750 1819 4750 
Q 2544 4750 2975 4387 
Q 3406 4025 3406 3419 
Q 3406 3131 3298 2873 
Q 3191 2616 2906 2266 
Q 2828 2175 2409 1742 
Q 1991 1309 1228 531 
z
" transform="scale(0.015625)"/>
       </defs>
       <use xlink:href="#DejaVuSans-32"/>
       <use xlink:href="#DejaVuSans-30" x="63.623047"/>
       <use xlink:href="#DejaVuSans-30" x="127.246094"/>
      </g>
     </g>
    </g>
    <g id="xtick_3">
     <g id="line2d_3">
      <g>
       <use xlink:href="#m58b1e0903a" x="202.564791" y="252" style="stroke: #000000; stroke-width: 0.8"/>
      </g>
     </g>
     <g id="text_3">
      <!-- 400 -->
      <g transform="translate(193.021041 266.598437)scale(0.1 -0.1)">
       <defs>
        <path id="DejaVuSans-34" d="M 2419 4116 
L 825 1625 
L 2419 1625 
L 2419 4116 
z
M 2253 4666 
L 3047 4666 
L 3047 1625 
L 3713 1625 
L 3713 1100 
L 3047 1100 
L 3047 0 
L 2419 0 
L 2419 1100 
L 313 1100 
L 313 1709 
L 2253 4666 
z
" transform="scale(0.015625)"/>
       </defs>
       <use xlink:href="#DejaVuSans-34"/>
       <use xlink:href="#DejaVuSans-30" x="63.623047"/>
       <use xlink:href="#DejaVuSans-30" x="127.246094"/>
      </g>
     </g>
    </g>
    <g id="xtick_4">
     <g id="line2d_4">
      <g>
       <use xlink:href="#m58b1e0903a" x="269.238096" y="252" style="stroke: #000000; stroke-width: 0.8"/>
      </g>
     </g>
     <g id="text_4">
      <!-- 600 -->
      <g transform="translate(259.694346 266.598437)scale(0.1 -0.1)">
       <defs>
        <path id="DejaVuSans-36" d="M 2113 2584 
Q 1688 2584 1439 2293 
Q 1191 2003 1191 1497 
Q 1191 994 1439 701 
Q 1688 409 2113 409 
Q 2538 409 2786 701 
Q 3034 994 3034 1497 
Q 3034 2003 2786 2293 
Q 2538 2584 2113 2584 
z
M 3366 4563 
L 3366 3988 
Q 3128 4100 2886 4159 
Q 2644 4219 2406 4219 
Q 1781 4219 1451 3797 
Q 1122 3375 1075 2522 
Q 1259 2794 1537 2939 
Q 1816 3084 2150 3084 
Q 2853 3084 3261 2657 
Q 3669 2231 3669 1497 
Q 3669 778 3244 343 
Q 2819 -91 2113 -91 
Q 1303 -91 875 529 
Q 447 1150 447 2328 
Q 447 3434 972 4092 
Q 1497 4750 2381 4750 
Q 2619 4750 2861 4703 
Q 3103 4656 3366 4563 
z
" transform="scale(0.015625)"/>
       </defs>
       <use xlink:href="#DejaVuSans-36"/>
       <use xlink:href="#DejaVuSans-30" x="63.623047"/>
       <use xlink:href="#DejaVuSans-30" x="127.246094"/>
      </g>
     </g>
    </g>
    <g id="xtick_5">
     <g id="line2d_5">
      <g>
       <use xlink:href="#m58b1e0903a" x="335.911401" y="252" style="stroke: #000000; stroke-width: 0.8"/>
      </g>
     </g>
     <g id="text_5">
      <!-- 800 -->
      <g transform="translate(326.367651 266.598437)scale(0.1 -0.1)">
       <defs>
        <path id="DejaVuSans-38" d="M 2034 2216 
Q 1584 2216 1326 1975 
Q 1069 1734 1069 1313 
Q 1069 891 1326 650 
Q 1584 409 2034 409 
Q 2484 409 2743 651 
Q 3003 894 3003 1313 
Q 3003 1734 2745 1975 
Q 2488 2216 2034 2216 
z
M 1403 2484 
Q 997 2584 770 2862 
Q 544 3141 544 3541 
Q 544 4100 942 4425 
Q 1341 4750 2034 4750 
Q 2731 4750 3128 4425 
Q 3525 4100 3525 3541 
Q 3525 3141 3298 2862 
Q 3072 2584 2669 2484 
Q 3125 2378 3379 2068 
Q 3634 1759 3634 1313 
Q 3634 634 3220 271 
Q 2806 -91 2034 -91 
Q 1263 -91 848 271 
Q 434 634 434 1313 
Q 434 1759 690 2068 
Q 947 2378 1403 2484 
z
M 1172 3481 
Q 1172 3119 1398 2916 
Q 1625 2713 2034 2713 
Q 2441 2713 2670 2916 
Q 2900 3119 2900 3481 
Q 2900 3844 2670 4047 
Q 2441 4250 2034 4250 
Q 1625 4250 1398 4047 
Q 1172 3844 1172 3481 
z
" transform="scale(0.015625)"/>
       </defs>
       <use xlink:href="#DejaVuSans-38"/>
       <use xlink:href="#DejaVuSans-30" x="63.623047"/>
       <use xlink:href="#DejaVuSans-30" x="127.246094"/>
      </g>
     </g>
    </g>
   </g>
   <g id="matplotlib.axis_2">
    <g id="ytick_1">
     <g id="line2d_6">
      <defs>
       <path id="m475747a0a3" d="M 0 0 
L -3.5 0 
" style="stroke: #000000; stroke-width: 0.8"/>
      </defs>
      <g>
       <use xlink:href="#m475747a0a3" x="54" y="233.089445" style="stroke: #000000; stroke-width: 0.8"/>
      </g>
     </g>
     <g id="text_6">
      <!-- 100 -->
      <g transform="translate(27.9125 236.888664)scale(0.1 -0.1)">
       <defs>
        <path id="DejaVuSans-31" d="M 794 531 
L 1825 531 
L 1825 4091 
L 703 3866 
L 703 4441 
L 1819 4666 
L 2450 4666 
L 2450 531 
L 3481 531 
L 3481 0 
L 794 0 
L 794 531 
z
" transform="scale(0.015625)"/>
       </defs>
       <use xlink:href="#DejaVuSans-31"/>
       <use xlink:href="#DejaVuSans-30" x="63.623047"/>
       <use xlink:href="#DejaVuSans-30" x="127.246094"/>
      </g>
     </g>
    </g>
    <g id="ytick_2">
     <g id="line2d_7">
      <g>
       <use xlink:href="#m475747a0a3" x="54" y="202.163903" style="stroke: #000000; stroke-width: 0.8"/>
      </g>
     </g>
     <g id="text_7">
      <!-- 200 -->
      <g transform="translate(27.9125 205.963122)scale(0.1 -0.1)">
       <use xlink:href="#DejaVuSans-32"/>
       <use xlink:href="#DejaVuSans-30" x="63.623047"/>
       <use xlink:href="#DejaVuSans-30" x="127.246094"/>
      </g>
     </g>
    </g>
    <g id="ytick_3">
     <g id="line2d_8">
      <g>
       <use xlink:href="#m475747a0a3" x="54" y="171.23836" style="stroke: #000000; stroke-width: 0.8"/>
      </g>
     </g>
     <g id="text_8">
      <!-- 300 -->
      <g transform="translate(27.9125 175.037579)scale(0.1 -0.1)">
       <defs>
        <path id="DejaVuSans-33" d="M 2597 2516 
Q 3050 2419 3304 2112 
Q 3559 1806 3559 1356 
Q 3559 666 3084 287 
Q 2609 -91 1734 -91 
Q 1441 -91 1130 -33 
Q 819 25 488 141 
L 488 750 
Q 750 597 1062 519 
Q 1375 441 1716 441 
Q 2309 441 2620 675 
Q 2931 909 2931 1356 
Q 2931 1769 2642 2001 
Q 2353 2234 1838 2234 
L 1294 2234 
L 1294 2753 
L 1863 2753 
Q 2328 2753 2575 2939 
Q 2822 3125 2822 3475 
Q 2822 3834 2567 4026 
Q 2313 4219 1838 4219 
Q 1578 4219 1281 4162 
Q 984 4106 628 3988 
L 628 4550 
Q 988 4650 1302 4700 
Q 1616 4750 1894 4750 
Q 2613 4750 3031 4423 
Q 3450 4097 3450 3541 
Q 3450 3153 3228 2886 
Q 3006 2619 2597 2516 
z
" transform="scale(0.015625)"/>
       </defs>
       <use xlink:href="#DejaVuSans-33"/>
       <use xlink:href="#DejaVuSans-30" x="63.623047"/>
       <use xlink:href="#DejaVuSans-30" x="127.246094"/>
      </g>
     </g>
    </g>
    <g id="ytick_4">
     <g id="line2d_9">
      <g>
       <use xlink:href="#m475747a0a3" x="54" y="140.312818" style="stroke: #000000; stroke-width: 0.8"/>
      </g>
     </g>
     <g id="text_9">
      <!-- 400 -->
      <g transform="translate(27.9125 144.112037)scale(0.1 -0.1)">
       <use xlink:href="#DejaVuSans-34"/>
       <use xlink:href="#DejaVuSans-30" x="63.623047"/>
       <use xlink:href="#DejaVuSans-30" x="127.246094"/>
      </g>
     </g>
    </g>
    <g id="ytick_5">
     <g id="line2d_10">
      <g>
       <use xlink:href="#m475747a0a3" x="54" y="109.387276" style="stroke: #000000; stroke-width: 0.8"/>
      </g>
     </g>
     <g id="text_10">
      <!-- 500 -->
      <g transform="translate(27.9125 113.186494)scale(0.1 -0.1)">
       <defs>
        <path id="DejaVuSans-35" d="M 691 4666 
L 3169 4666 
L 3169 4134 
L 1269 4134 
L 1269 2991 
Q 1406 3038 1543 3061 
Q 1681 3084 1819 3084 
Q 2600 3084 3056 2656 
Q 3513 2228 3513 1497 
Q 3513 744 3044 326 
Q 2575 -91 1722 -91 
Q 1428 -91 1123 -41 
Q 819 9 494 109 
L 494 744 
Q 775 591 1075 516 
Q 1375 441 1709 441 
Q 2250 441 2565 725 
Q 2881 1009 2881 1497 
Q 2881 1984 2565 2268 
Q 2250 2553 1709 2553 
Q 1456 2553 1204 2497 
Q 953 2441 691 2322 
L 691 4666 
z
" transform="scale(0.015625)"/>
       </defs>
       <use xlink:href="#DejaVuSans-35"/>
       <use xlink:href="#DejaVuSans-30" x="63.623047"/>
       <use xlink:href="#DejaVuSans-30" x="127.246094"/>
      </g>
     </g>
    </g>
    <g id="ytick_6">
     <g id="line2d_11">
      <g>
       <use xlink:href="#m475747a0a3" x="54" y="78.461733" style="stroke: #000000; stroke-width: 0.8"/>
      </g>
     </g>
     <g id="text_11">
      <!-- 600 -->
      <g transform="translate(27.9125 82.260952)scale(0.1 -0.1)">
       <use xlink:href="#DejaVuSans-36"/>
       <use xlink:href="#DejaVuSans-30" x="63.623047"/>
       <use xlink:href="#DejaVuSans-30" x="127.246094"/>
      </g>
     </g>
    </g>
    <g id="ytick_7">
     <g id="line2d_12">
      <g>
       <use xlink:href="#m475747a0a3" x="54" y="47.536191" style="stroke: #000000; stroke-width: 0.8"/>
      </g>
     </g>
     <g id="text_12">
      <!-- 700 -->
      <g transform="translate(27.9125 51.335409)scale(0.1 -0.1)">
       <defs>
        <path id="DejaVuSans-37" d="M 525 4666 
L 3525 4666 
L 3525 4397 
L 1831 0 
L 1172 0 
L 2766 4134 
L 525 4134 
L 525 4666 
z
" transform="scale(0.015625)"/>
       </defs>
       <use xlink:href="#DejaVuSans-37"/>
       <use xlink:href="#DejaVuSans-30" x="63.623047"/>
       <use xlink:href="#DejaVuSans-30" x="127.246094"/>
      </g>
     </g>
    </g>
   </g>
   <g id="line2d_13">
    <path d="M 69.218182 44.443636 
L 69.551548 46.608424 
L 69.884915 50.319489 
L 70.218281 58.669386 
L 70.551648 62.071196 
L 70.885014 63.926728 
L 71.218381 68.256304 
L 71.885114 72.58588 
L 73.885313 85.883863 
L 74.21868 89.904184 
L 74.885413 101.037379 
L 75.552146 103.202167 
L 76.218879 109.696531 
L 77.552345 123.922281 
L 77.885711 126.705579 
L 78.219078 128.251856 
L 79.219178 134.436965 
L 79.552544 134.74622 
L 80.219277 136.911008 
L 80.552644 138.766541 
L 81.219377 139.385052 
L 81.552743 140.622073 
L 81.88611 140.312818 
L 82.219476 140.312818 
L 82.552843 140.622073 
L 83.219576 144.023883 
L 83.552942 143.714628 
L 83.886309 143.096117 
L 84.553042 141.54984 
L 84.886408 141.240584 
L 85.219775 140.622073 
L 85.886508 140.003563 
L 86.886608 140.003563 
L 87.886707 140.931329 
L 88.886807 143.405372 
L 89.220173 144.023883 
L 90.220273 146.497927 
L 90.553639 147.116437 
L 90.887006 147.425693 
L 91.553739 148.662714 
L 91.887105 148.97197 
L 92.553838 150.208992 
L 93.553938 152.683035 
L 93.887305 153.301546 
L 94.554038 153.920057 
L 94.887404 154.538568 
L 95.220771 154.847823 
L 95.554137 155.466334 
L 95.887504 155.466334 
L 96.22087 155.775589 
L 96.554237 156.3941 
L 96.887603 156.703356 
L 97.22097 157.321866 
L 97.887703 158.868144 
L 98.221069 159.486654 
L 99.221169 160.414421 
L 99.554535 161.032931 
L 101.554735 162.888464 
L 101.888101 163.506975 
L 102.221468 163.81623 
L 103.554934 166.290274 
L 103.8883 166.290274 
L 105.221766 167.527295 
L 105.555133 168.145806 
L 105.888499 167.836551 
L 107.555332 169.382828 
L 107.888699 169.382828 
L 108.222065 170.001339 
L 109.222165 170.929105 
L 109.555531 171.547616 
L 110.555631 172.475382 
L 110.888997 173.403148 
L 111.222364 173.712404 
L 111.889097 174.949426 
L 112.222463 175.258681 
L 112.55583 175.877192 
L 113.222563 176.495703 
L 113.55593 177.114214 
L 114.889396 178.351235 
L 115.222762 178.351235 
L 116.222862 179.279002 
L 116.556228 179.897512 
L 117.556328 180.825279 
L 117.889694 181.44379 
L 120.22326 183.608577 
L 120.556627 183.608577 
L 122.556826 185.46411 
L 122.890192 185.46411 
L 123.556925 186.082621 
L 123.890292 186.082621 
L 124.557025 186.701132 
L 124.890391 186.701132 
L 125.223758 187.010387 
L 125.557124 187.010387 
L 126.223857 187.628898 
L 126.557224 187.628898 
L 127.223957 188.247409 
L 127.557324 188.247409 
L 127.89069 188.556664 
L 128.224057 188.556664 
L 128.557423 188.86592 
L 128.89079 188.86592 
L 129.224156 189.175175 
L 129.557523 189.175175 
L 129.890889 189.484431 
L 130.557622 189.484431 
L 131.224355 190.102941 
L 131.891088 190.102941 
L 132.557821 190.721452 
L 132.891188 190.412197 
L 137.224953 190.412197 
L 137.558319 190.721452 
L 138.891785 190.721452 
L 139.225152 191.030708 
L 139.558518 191.030708 
L 139.891885 191.339963 
L 140.558618 191.339963 
L 140.891984 191.649219 
L 141.892084 191.649219 
L 142.225451 191.958474 
L 142.892184 191.958474 
L 143.22555 192.267729 
L 143.892283 192.267729 
L 145.892482 194.123262 
L 146.225849 194.123262 
L 146.559215 194.432517 
L 147.559315 194.432517 
L 147.892681 194.741773 
L 149.226148 194.741773 
L 149.559514 195.051028 
L 149.892881 195.051028 
L 150.559614 195.669539 
L 151.226347 195.669539 
L 151.559713 195.978794 
L 151.89308 195.978794 
L 152.226446 196.28805 
L 153.226546 196.28805 
L 153.559912 196.597305 
L 154.226645 196.597305 
L 154.560012 196.906561 
L 154.893378 196.906561 
L 155.560112 197.525072 
L 156.226845 197.525072 
L 156.560211 197.834327 
L 157.560311 197.834327 
L 157.893677 198.143582 
L 158.227044 198.143582 
L 158.56041 198.452838 
L 158.893777 198.452838 
L 159.227143 198.762093 
L 159.56051 198.762093 
L 160.227243 199.380604 
L 160.560609 199.380604 
L 160.893976 199.68986 
L 161.227342 199.68986 
L 161.894075 200.30837 
L 162.227442 200.30837 
L 162.894175 200.926881 
L 163.227542 200.926881 
L 163.560908 201.236137 
L 163.894275 201.236137 
L 164.227641 201.545392 
L 164.561008 201.545392 
L 164.894374 201.854648 
L 165.227741 201.854648 
L 165.561107 202.163903 
L 171.561705 202.163903 
L 171.895071 202.473158 
L 173.89527 202.473158 
L 174.228637 202.782414 
L 174.89537 202.782414 
L 175.228736 203.091669 
L 176.228836 203.091669 
L 176.562203 203.400925 
L 179.562501 203.400925 
L 179.895868 203.71018 
L 181.896067 203.71018 
L 182.229433 204.019436 
L 183.896266 204.019436 
L 184.229633 204.328691 
L 185.563099 204.328691 
L 185.896465 204.637946 
L 186.563198 204.637946 
L 186.896565 204.947202 
L 187.229931 204.947202 
L 187.563298 205.256457 
L 188.563397 205.256457 
L 188.896764 205.565713 
L 189.23013 205.565713 
L 189.563497 205.874968 
L 190.563597 205.874968 
L 190.896963 206.184223 
L 192.563796 206.184223 
L 192.897162 206.493479 
L 193.230529 206.493479 
L 193.563895 206.802734 
L 194.563995 206.802734 
L 194.897361 207.11199 
L 195.564094 207.11199 
L 195.897461 207.421245 
L 197.230927 207.421245 
L 197.564294 207.730501 
L 198.231027 207.730501 
L 198.564393 208.039756 
L 201.231325 208.039756 
L 201.564692 208.349011 
L 201.898058 208.349011 
L 202.564791 208.967522 
L 202.898158 208.967522 
L 204.898357 210.823055 
L 205.56509 210.823055 
L 205.898457 211.13231 
L 207.898656 211.13231 
L 208.232022 211.441566 
L 208.565389 211.441566 
L 208.898755 211.750821 
L 209.232122 211.750821 
L 209.565488 212.060077 
L 209.898855 212.060077 
L 210.232221 212.369332 
L 210.565588 212.369332 
L 210.898954 212.678587 
L 211.565688 212.678587 
L 211.899054 212.987843 
L 213.23252 212.987843 
L 213.565887 213.297098 
L 213.899253 213.297098 
L 214.23262 212.987843 
L 217.232918 212.987843 
L 217.566285 213.297098 
L 220.233217 213.297098 
L 220.566584 213.606354 
L 221.90005 213.606354 
L 222.233416 213.915609 
L 224.233615 213.915609 
L 224.566982 214.224865 
L 227.233914 214.224865 
L 227.567281 214.53412 
L 230.234213 214.53412 
L 230.567579 214.224865 
L 230.900946 214.224865 
L 231.234312 214.53412 
L 231.901046 214.53412 
L 232.234412 214.843375 
L 234.901344 214.843375 
L 235.234711 214.53412 
L 235.901444 214.53412 
L 236.23481 214.843375 
L 237.568276 214.843375 
L 237.901643 215.152631 
L 238.568376 215.152631 
L 238.901743 214.843375 
L 239.235109 215.152631 
L 239.568476 215.152631 
L 239.901842 214.843375 
L 241.235308 214.843375 
L 241.568675 215.152631 
L 244.568973 215.152631 
L 244.90234 215.461886 
L 245.90244 215.461886 
L 246.235806 215.771142 
L 246.902539 215.771142 
L 247.235906 215.461886 
L 247.902639 215.461886 
L 248.236005 215.771142 
L 249.569471 215.771142 
L 249.902838 216.080397 
L 250.569571 216.080397 
L 250.902937 216.389652 
L 251.236304 216.389652 
L 251.56967 216.698908 
L 251.903037 216.698908 
L 252.236403 217.008163 
L 252.56977 217.008163 
L 252.903137 217.317419 
L 253.236503 217.317419 
L 253.56987 217.626674 
L 253.903236 217.626674 
L 254.236603 217.93593 
L 255.236702 217.93593 
L 255.570069 218.245185 
L 255.903435 218.245185 
L 256.236802 218.55444 
L 259.570467 218.55444 
L 259.903834 218.245185 
L 260.570567 218.245185 
L 260.903933 218.55444 
L 264.904331 218.55444 
L 265.237698 218.863696 
L 265.571064 218.55444 
L 265.904431 218.863696 
L 266.571164 218.863696 
L 266.904531 219.172951 
L 268.90473 219.172951 
L 269.238096 219.482207 
L 269.904829 219.482207 
L 270.238196 220.100718 
L 270.571562 220.409973 
L 271.905028 222.884016 
L 273.238494 224.121038 
L 273.571861 224.739549 
L 273.905228 225.048804 
L 274.571961 226.285826 
L 275.238694 226.904337 
L 275.905427 226.904337 
L 276.238793 226.595082 
L 276.905526 226.595082 
L 277.238893 226.904337 
L 277.905626 226.285826 
L 279.239092 226.285826 
L 279.572458 226.904337 
L 280.572558 226.904337 
L 280.905925 227.213592 
L 281.239291 227.213592 
L 281.906024 227.832103 
L 282.906124 227.832103 
L 283.572857 228.450614 
L 284.572956 228.450614 
L 284.906323 228.759869 
L 285.239689 228.450614 
L 285.906422 228.450614 
L 286.239789 228.759869 
L 286.573155 228.759869 
L 286.906522 229.069125 
L 287.239888 228.759869 
L 287.906622 228.759869 
L 289.240088 229.996891 
L 289.906821 229.996891 
L 290.240187 230.306147 
L 291.240287 230.306147 
L 291.573653 230.615402 
L 292.573753 230.615402 
L 292.907119 230.924657 
L 293.573852 230.924657 
L 293.907219 231.233913 
L 298.57435 231.233913 
L 298.907717 231.543168 
L 299.241083 231.543168 
L 299.907816 232.161679 
L 300.241183 232.161679 
L 300.574549 232.470935 
L 302.574749 232.470935 
L 302.908115 232.78019 
L 303.574848 232.78019 
L 303.908215 233.089445 
L 305.241681 233.089445 
L 305.575047 233.398701 
L 305.908414 233.398701 
L 306.24178 233.089445 
L 309.908812 233.089445 
L 310.242179 233.398701 
L 310.575545 233.089445 
L 311.909011 233.089445 
L 312.242378 232.78019 
L 313.242477 232.78019 
L 313.575844 232.470935 
L 313.90921 232.78019 
L 316.242776 232.78019 
L 316.576143 233.089445 
L 316.909509 232.78019 
L 317.242876 233.089445 
L 321.910007 233.089445 
L 322.243373 232.78019 
L 325.910405 232.78019 
L 326.243772 233.089445 
L 328.243971 233.089445 
L 328.577337 233.398701 
L 329.910804 233.398701 
L 330.24417 233.089445 
L 330.577537 233.398701 
L 331.911003 233.398701 
L 332.244369 233.089445 
L 332.577736 233.398701 
L 334.244568 233.398701 
L 334.577935 233.707956 
L 335.244668 233.707956 
L 335.578034 234.017212 
L 335.911401 234.017212 
L 336.244767 234.326467 
L 339.245066 234.326467 
L 339.578433 234.635723 
L 339.911799 234.635723 
L 340.245166 234.326467 
L 340.578532 234.635723 
L 340.911899 234.326467 
L 344.912297 234.326467 
L 345.245664 234.635723 
L 352.579727 234.635723 
L 352.913094 234.944978 
L 353.579827 234.944978 
L 353.913193 235.254233 
L 355.580026 235.254233 
L 355.913392 235.563489 
L 356.246759 235.563489 
L 356.580125 235.254233 
L 356.913492 235.254233 
L 357.246859 235.563489 
L 357.580225 235.563489 
L 357.913592 235.254233 
L 358.580325 235.254233 
L 358.913691 235.563489 
L 359.247058 235.563489 
L 359.580424 235.254233 
L 361.580623 235.254233 
L 361.91399 235.563489 
L 363.247456 235.563489 
L 363.580822 235.872744 
L 363.914189 235.872744 
L 364.247556 235.563489 
L 365.581022 235.563489 
L 365.914388 235.254233 
L 366.914488 235.254233 
L 367.247854 234.944978 
L 368.58132 234.944978 
L 368.914687 234.635723 
L 369.248053 234.635723 
L 369.58142 234.326467 
L 369.914786 234.326467 
L 370.248153 234.017212 
L 370.581519 234.326467 
L 370.914886 234.326467 
L 371.248253 234.635723 
L 372.581719 237.109766 
L 372.915085 236.800511 
L 373.581818 238.037532 
L 373.581818 238.037532 
" clip-path="url(#pd474780349)" style="fill: none; stroke: #1f77b4; stroke-width: 1.5; stroke-linecap: square"/>
   </g>
   <g id="line2d_14">
    <path d="M 69.218182 64.814977 
L 71.218381 77.308074 
L 73.21858 88.550033 
L 75.218779 98.670257 
L 77.218978 107.784768 
L 79.219178 115.997586 
L 81.219377 123.401974 
L 83.552942 131.129721 
L 85.886508 137.988593 
L 88.220074 144.082502 
L 90.553639 149.502935 
L 92.887205 154.330439 
L 95.220771 158.635926 
L 97.554336 162.481826 
L 99.887902 165.923106 
L 102.221468 169.008156 
L 104.8884 172.152141 
L 107.555332 174.94184 
L 110.222264 177.425249 
L 113.222563 179.904411 
L 116.222862 182.098932 
L 119.556527 184.255523 
L 123.223559 186.342039 
L 127.223957 188.338603 
L 131.557722 190.236685 
L 136.224853 192.037436 
L 141.558718 193.857097 
L 147.892681 195.772094 
L 155.226745 197.752722 
L 164.561008 200.030377 
L 176.895569 202.790802 
L 194.563995 206.496776 
L 226.567181 212.945337 
L 340.911899 235.638715 
L 373.581818 242.116364 
L 373.581818 242.116364 
" clip-path="url(#pd474780349)" style="fill: none; stroke: #ff7f0e; stroke-width: 1.5; stroke-linecap: square"/>
   </g>
   <g id="patch_3">
    <path d="M 54 252 
L 54 34.56 
" style="fill: none; stroke: #000000; stroke-width: 0.8; stroke-linejoin: miter; stroke-linecap: square"/>
   </g>
   <g id="patch_4">
    <path d="M 388.8 252 
L 388.8 34.56 
" style="fill: none; stroke: #000000; stroke-width: 0.8; stroke-linejoin: miter; stroke-linecap: square"/>
   </g>
   <g id="patch_5">
    <path d="M 54 252 
L 388.8 252 
" style="fill: none; stroke: #000000; stroke-width: 0.8; stroke-linejoin: miter; stroke-linecap: square"/>
   </g>
   <g id="patch_6">
    <path d="M 54 34.56 
L 388.8 34.56 
" style="fill: none; stroke: #000000; stroke-width: 0.8; stroke-linejoin: miter; stroke-linecap: square"/>
   </g>
  </g>
 </g>
 <defs>
  <clipPath id="pd474780349">
   <rect x="54" y="34.56" width="334.8" height="217.44"/>
  </clipPath>
 </defs>
</svg>
